<?xml version="1.0" encoding="utf-8"?>
<!-- Generator: Adobe Illustrator 19.0.0, SVG Export Plug-In . SVG Version: 6.00 Build 0)  -->
<svg version="1.1" id="Layer_1" xmlns="http://www.w3.org/2000/svg" xmlns:xlink="http://www.w3.org/1999/xlink" x="0px" y="0px"
	 viewBox="0 0 150 110" style="enable-background:new 0 0 150 110;" xml:space="preserve">
<style type="text/css">
	.st0{fill:#008166;}
</style>
<g id="XMLID_147_">
	<path id="XMLID_56_" class="st0" d="M0,110l3.5-13.1l16.9-63.1C25.5,14.8,44.4,0,63.5,0H150l-3.5,13.1l-16.9,63.1
		c-5.1,18.9-24,33.8-43.1,33.8H0z M63.5,5.2C46.7,5.2,30,18.4,25.5,35.1L6.8,104.8h79.7c16.9,0,33.6-13.1,38.1-29.9l18.7-69.6H63.5z
		"/>
	<path id="group_1_" class="st0" d="M79.9,46.8c-3-0.2-6.5,0-10.6,0.7l9.4,16.9l37.2-10.2c-0.4-1-1-1.9-1.8-2.8
		c-3.8-4.5-12.2-8.4-21.3-10.2v0c-8.9-2.1-18.6-2-28.4-0.5c-0.4,0.1-0.7,0.1-1.1,0.2L60,34.8c-3.2,0.4-6.2,1.1-9,2l3.1,6.5
		c-5.1,2-9.3,4.8-12.3,8.2c-5,5.7-7,12.8-4.6,19.8c0.5,1.4,1.1,2.7,1.9,4L76.3,65L66,45.9c0.4-0.1,0.7-0.1,1.1-0.2
		c16.7-3,25.8,1.6,30.8,6.5l-12.7,3.1L79.9,46.8z M49.8,63.9c-1.1-5.2-0.2-11.1,7-15l5.7,11.9L49.8,63.9z M49.8,63.9"/>
</g>
</svg>
