<svg xmlns="http://www.w3.org/2000/svg" viewBox="0 0 150 110"><style><![CDATA[.D{fill:#008166}]]></style><path class="D" d="M0 110l3.5-13.1 16.9-63.1C25.5 14.8 44.4 0 63.5 0H150l-20.4 76.2c-5.1 18.9-24 33.8-43.1 33.8H0zM63.5 5.2c-16.8 0-33.5 13.2-38 29.9L6.8 104.8h79.7c16.9 0 33.6-13.1 38.1-29.9l18.7-69.6H63.5zm16.2 42.1c-2.9-.2-6.2 0-10 .7l8.8 15.9 35-9.6c-.4-.9-.9-1.8-1.7-2.6-3.6-4.2-11.5-7.9-20-9.6-8.4-2-17.5-1.9-26.8-.5-.3.1-.7.1-1 .2l-3.1-5.7c-3 .4-5.8 1-8.5 1.9l2.9 6.2c-4.8 1.9-8.8 4.5-11.6 7.7-4.7 5.4-6.6 12.1-4.3 18.6.5 1.3 1.1 2.6 1.8 3.8l35-9.6-9.7-18c.3-.1.7-.1 1-.2 15.7-2.8 24.3 1.5 29 6.1l-12 2.9-4.8-8.2zM51.3 63.4c-1.1-4.9-.2-10.4 6.6-14.1l5.4 11.2-12 2.9zm0 0"/></svg>