<?xml version="1.0" encoding="utf-8"?>
<!-- Generator: Adobe Illustrator 19.0.0, SVG Export Plug-In . SVG Version: 6.00 Build 0)  -->
<svg version="1.1" id="Layer_1" xmlns="http://www.w3.org/2000/svg" xmlns:xlink="http://www.w3.org/1999/xlink" x="0px" y="0px"
	 viewBox="0 0 150 110" style="enable-background:new 0 0 150 110;" xml:space="preserve">
<style type="text/css">
	.st0{fill:#314A7E;}
</style>
<g id="XMLID_4_">
	<path id="XMLID_41_" class="st0" d="M0,110l3.5-13.1l16.9-63.1C25.5,14.8,44.4,0,63.5,0H150l-3.5,13.1l-16.9,63.1
		c-5.1,18.9-24,33.8-43.1,33.8H0z M63.5,5.2C46.7,5.2,30,18.4,25.5,35.1L6.8,104.8h79.7c16.9,0,33.6-13.1,38.1-29.9l18.7-69.6H63.5z
		"/>
	<path id="XMLID_5_" class="st0" d="M88.9,55h-9.1v32.5H66.3V55h-6.4V43.5h6.4v-7.4c0-5.3,2.5-13.6,13.6-13.6l10,0v11.1h-7.3
		c-1.2,0-2.9,0.6-2.9,3.1v6.8h10.3L88.9,55z M88.9,55"/>
</g>
</svg>
