<?xml version="1.0" encoding="utf-8"?>
<!-- Generator: Adobe Illustrator 19.0.0, SVG Export Plug-In . SVG Version: 6.00 Build 0)  -->
<svg version="1.1" id="Layer_1" xmlns="http://www.w3.org/2000/svg" xmlns:xlink="http://www.w3.org/1999/xlink" x="0px" y="0px"
	 viewBox="0 0 150 110" style="enable-background:new 0 0 150 110;" xml:space="preserve">
<style type="text/css">
	.st0{display:none;}
	.st1{display:inline;fill:#EE712B;}
	.st2{display:inline;fill:#65469B;}
	.st3{display:inline;fill:#008166;}
	.st4{display:inline;fill:#2C4762;}
	.st5{display:inline;fill:#E32E28;}
	.st6{display:inline;fill-rule:evenodd;clip-rule:evenodd;fill:#E32E28;}
	.st7{display:inline;fill:#329CC2;}
	.st8{fill:#314A7E;}
</style>
<g id="XMLID_1_" class="st0">
	<path id="XMLID_63_" class="st1" d="M0,110l3.5-13.1l16.9-63.1C25.5,14.8,44.4,0,63.5,0H150l-3.5,13.1l-16.9,63.1
		c-5.1,18.9-24,33.8-43.1,33.8H0z M63.5,5.2C46.7,5.2,30,18.4,25.5,35.1L6.8,104.8h79.7c16.9,0,33.6-13.1,38.1-29.9l18.7-69.6H63.5z
		"/>
	<path id="XMLID_176_" class="st1" d="M35.7,67.7c0,0.2-0.2,0.3-0.3,0.3c-0.2,0-0.3-0.1-0.3-0.3l-0.6-4.4l0.6-4.5
		c0-0.2,0.2-0.3,0.3-0.3c0.2,0,0.3,0.1,0.3,0.3l0.7,4.5L35.7,67.7z M38.7,70.4c0,0.2-0.2,0.3-0.3,0.3c-0.2,0-0.3-0.1-0.3-0.3
		l-0.8-7.1L38,56c0-0.2,0.2-0.3,0.3-0.3c0.2,0,0.3,0.1,0.3,0.3l0.9,7.3L38.7,70.4z M41.9,71.6c0,0.2-0.2,0.4-0.4,0.4
		c-0.2,0-0.4-0.2-0.4-0.4l-0.8-8.3l0.8-8.6c0-0.2,0.2-0.4,0.4-0.4c0.2,0,0.4,0.2,0.4,0.4l0.9,8.6L41.9,71.6z M45.2,71.9
		c0,0.3-0.2,0.5-0.5,0.5c-0.3,0-0.5-0.2-0.5-0.5l-0.7-8.6l0.7-8.9c0-0.3,0.2-0.5,0.5-0.5c0.2,0,0.5,0.2,0.5,0.5l0.8,8.9L45.2,71.9z
		 M48.5,71.9c0,0.3-0.3,0.5-0.5,0.5c-0.3,0-0.5-0.2-0.5-0.5l-0.7-8.7l0.7-8.2c0-0.3,0.3-0.5,0.5-0.5c0.3,0,0.5,0.2,0.5,0.5l0.8,8.2
		L48.5,71.9z M51.9,72L51.9,72c0,0.3-0.3,0.6-0.6,0.6c-0.3,0-0.6-0.3-0.6-0.6L50,63.3l0.6-13.4c0-0.3,0.3-0.6,0.6-0.6
		c0.3,0,0.6,0.3,0.6,0.6l0.7,13.4L51.9,72z M55.2,71.9L55.2,71.9c0,0.4-0.3,0.7-0.7,0.7c-0.4,0-0.7-0.3-0.7-0.7l-0.6-8.6l0.6-16.5
		c0-0.4,0.3-0.7,0.7-0.7c0.4,0,0.7,0.3,0.7,0.7l0.7,16.5L55.2,71.9z M58.6,71.8L58.6,71.8c0,0.4-0.3,0.7-0.8,0.7
		c-0.4,0-0.7-0.3-0.8-0.7l-0.6-8.5c0,0,0.6-17.8,0.6-17.9c0-0.4,0.3-0.7,0.8-0.7c0.4,0,0.7,0.3,0.8,0.7l0.6,17.9L58.6,71.8z
		 M62,71.8c0,0.5-0.4,0.8-0.8,0.8c-0.4,0-0.8-0.4-0.8-0.8l-0.5-8.5l0.5-18.4c0-0.5,0.4-0.8,0.8-0.8c0.4,0,0.8,0.4,0.8,0.8l0.6,18.4
		L62,71.8z M65.5,71.7L65.5,71.7c0,0.5-0.4,0.9-0.9,0.9c-0.5,0-0.9-0.4-0.9-0.9l-0.5-8.4l0.5-18c0-0.5,0.4-0.9,0.9-0.9
		c0.5,0,0.9,0.4,0.9,0.9l0.5,18L65.5,71.7z M68.9,71.6L68.9,71.6c0,0.5-0.4,0.9-1,0.9c-0.5,0-0.9-0.4-1-0.9l-0.4-8.3L67,46
		c0-0.5,0.4-1,1-1c0.5,0,1,0.4,1,1l0.5,17.3L68.9,71.6z M72.5,70.8l0,0.8c0,0.3-0.1,0.5-0.3,0.7c-0.2,0.2-0.4,0.3-0.7,0.3
		c-0.3,0-0.6-0.1-0.8-0.4c-0.1-0.2-0.2-0.4-0.2-0.6c0,0,0,0,0,0c0,0-0.4-8.3-0.4-8.3l0.4-20.4l0-0.2c0-0.4,0.2-0.7,0.5-0.9
		c0.2-0.1,0.3-0.2,0.6-0.2c0.2,0,0.4,0.1,0.6,0.2c0.3,0.2,0.5,0.5,0.5,0.9l0.4,20.6L72.5,70.8z M75.9,71.5L75.9,71.5
		c0,0.6-0.5,1.1-1.1,1.1c-0.6,0-1.1-0.5-1.1-1.1l-0.2-4l-0.2-4.1l0.4-22.4v-0.1c0-0.3,0.2-0.6,0.4-0.8c0.2-0.2,0.4-0.2,0.7-0.2
		c0.2,0,0.4,0.1,0.6,0.2c0.3,0.2,0.5,0.5,0.5,0.9l0.5,22.5L75.9,71.5z M105.6,72.6c0,0-27.6,0-27.7,0c-0.6-0.1-1.1-0.5-1.1-1.1V39.7
		c0-0.6,0.2-0.9,1-1.2c1.9-0.8,4.1-1.2,6.4-1.2c9.2,0,16.7,7.1,17.5,16c1.2-0.5,2.5-0.8,3.9-0.8c5.5,0,10,4.5,10,10
		C115.6,68.1,111.1,72.6,105.6,72.6L105.6,72.6z M105.6,72.6"/>
</g>
<g id="XMLID_158_" class="st0">
	<path id="XMLID_59_" class="st2" d="M0,110l3.5-13.1l16.9-63.1C25.5,14.8,44.4,0,63.5,0H150l-3.5,13.1l-16.9,63.1
		c-5.1,18.9-24,33.8-43.1,33.8H0z M63.5,5.2C46.7,5.2,30,18.4,25.5,35.1L6.8,104.8h79.7c16.9,0,33.6-13.1,38.1-29.9l18.7-69.6H63.5z
		"/>
	<path id="XMLID_159_" class="st2" d="M89.4,78H77.6l-7.8,7.9H62V78H47.6V36.2l3.9-10.5h53.6v36.6L89.4,78z M99.9,59.8V31H56.7v37.9
		h11.8v7.8l7.8-7.8h14.4L99.9,59.8z M85.5,41.5v15.7h5.2V41.5H85.5z M71.1,57.1h5.2V41.5h-5.2V57.1z"/>
</g>
<g id="XMLID_147_" class="st0">
	<path id="XMLID_56_" class="st3" d="M0,110l3.5-13.1l16.9-63.1C25.5,14.8,44.4,0,63.5,0H150l-3.5,13.1l-16.9,63.1
		c-5.1,18.9-24,33.8-43.1,33.8H0z M63.5,5.2C46.7,5.2,30,18.4,25.5,35.1L6.8,104.8h79.7c16.9,0,33.6-13.1,38.1-29.9l18.7-69.6H63.5z
		"/>
	<path id="group_1_" class="st3" d="M79.9,45.5c-3-0.2-6.5,0-10.6,0.7l9.4,16.9l37.2-10.2c-0.4-1-1-1.9-1.8-2.8
		c-3.8-4.5-12.2-8.4-21.3-10.2v0c-8.9-2.1-18.6-2-28.4-0.5c-0.4,0.1-0.7,0.1-1.1,0.2L60,33.4c-3.2,0.4-6.2,1.1-9,2l3.1,6.5
		c-5.1,2-9.3,4.8-12.3,8.2c-5,5.7-7,12.8-4.6,19.8c0.5,1.4,1.1,2.7,1.9,4l37.2-10.2L66,44.6c0.4-0.1,0.7-0.1,1.1-0.2
		c16.7-3,25.8,1.6,30.8,6.5L85.2,54L79.9,45.5z M49.8,62.6c-1.1-5.2-0.2-11.1,7-15l5.7,11.9L49.8,62.6z M49.8,62.6"/>
</g>
<g id="XMLID_105_" class="st0">
	<path id="XMLID_50_" class="st4" d="M0,110l3.5-13.1l16.9-63.1C25.5,14.8,44.4,0,63.5,0H150l-3.5,13.1l-16.9,63.1
		c-5.1,18.9-24,33.8-43.1,33.8H0z M63.5,5.2C46.7,5.2,30,18.4,25.5,35.1L6.8,104.8h79.7c16.9,0,33.6-13.1,38.1-29.9l18.7-69.6H63.5z
		"/>
	<path id="XMLID_106_" class="st4" d="M78.6,35.8V21.3h-9.4c-0.2,0.5-0.3,1.2-0.3,1.8c-0.1,0.3-0.2,0.5-0.2,0.9
		c-1,5.4-3.8,9.1-8.5,11.2c-1.4,0.6-2.7,0.7-4.1,0.6v11.7h6.9c0.1,16.5,0.1,25,0.1,25.4v1c0.9,7.2,4.6,11.5,11.3,13.1
		c2.7,0.7,5.6,1.1,8.5,1.1c3.8-0.1,7.4-0.8,11.1-1.9V72.4c-2.1,0.6-4.1,1.2-5.8,1.7c-3.3,1-6.1,0.3-8.4-1.8
		c-0.2-0.3-0.5-0.8-0.6-1.2c-0.3-1.7-0.5-3.5-0.5-5.3V47.6h14.9V35.8H78.6z M78.6,35.8"/>
</g>
<g id="XMLID_79_" class="st0">
	<path id="XMLID_47_" class="st5" d="M0,110l3.5-13.1l16.9-63.1C25.5,14.8,44.4,0,63.5,0H150l-3.5,13.1l-16.9,63.1
		c-5.1,18.9-24,33.8-43.1,33.8H0z M63.5,5.2C46.7,5.2,30,18.4,25.5,35.1L6.8,104.8h79.7c16.9,0,33.6-13.1,38.1-29.9l18.7-69.6H63.5z
		"/>
	<path id="XMLID_80_" class="st6" d="M107.9,41.2c0-5.4-4.4-9.8-9.8-9.8H52c-5.4,0-9.8,4.4-9.8,9.8v26.4c0,5.4,4.4,9.8,9.8,9.8H98
		c5.4,0,9.8-4.4,9.8-9.8V41.2z M68.4,65.5V40.7l18.8,12.4L68.4,65.5z M68.4,65.5"/>
</g>
<g id="XMLID_51_" class="st0">
	<path id="XMLID_44_" class="st7" d="M0,110l3.5-13.1l16.9-63.1C25.5,14.8,44.4,0,63.5,0H150l-3.5,13.1l-16.9,63.1
		c-5.1,18.9-24,33.8-43.1,33.8H0z M63.5,5.2C46.7,5.2,30,18.4,25.5,35.1L6.8,104.8h79.7c16.9,0,33.6-13.1,38.1-29.9l18.7-69.6H63.5z
		"/>
	<path id="XMLID_52_" class="st7" d="M108.9,33.2c-2.5,1.1-5.2,1.9-8,2.2c2.9-1.7,5.1-4.5,6.1-7.7c-2.7,1.6-5.7,2.8-8.8,3.4
		c-2.5-2.7-6.2-4.4-10.2-4.4c-7.7,0-13.9,6.2-13.9,13.9c0,1.1,0.1,2.2,0.4,3.2c-11.6-0.6-21.8-6.1-28.7-14.6c-1.2,2.1-1.9,4.5-1.9,7
		c0,4.8,2.5,9.1,6.2,11.6c-2.3-0.1-4.4-0.7-6.3-1.7c0,0.1,0,0.1,0,0.2c0,6.7,4.8,12.4,11.2,13.7c-1.2,0.3-2.4,0.5-3.7,0.5
		c-0.9,0-1.8-0.1-2.6-0.2c1.8,5.5,6.9,9.6,13,9.7c-4.8,3.7-10.8,6-17.3,6c-1.1,0-2.2-0.1-3.3-0.2c6.2,4,13.5,6.3,21.4,6.3
		C88,81.8,102,60.6,102,42.2c0-0.6,0-1.2,0-1.8C104.7,38.4,107.1,36,108.9,33.2L108.9,33.2z M108.9,33.2"/>
</g>
<g id="XMLID_4_">
	<path id="XMLID_41_" class="st8" d="M0,110l3.5-13.1l16.9-63.1C25.5,14.8,44.4,0,63.5,0H150l-3.5,13.1l-16.9,63.1
		c-5.1,18.9-24,33.8-43.1,33.8H0z M63.5,5.2C46.7,5.2,30,18.4,25.5,35.1L6.8,104.8h79.7c16.9,0,33.6-13.1,38.1-29.9l18.7-69.6H63.5z
		"/>
	<path id="XMLID_5_" class="st8" d="M88.9,54.2h-9.1v32.5H66.3V54.2h-6.4V42.8h6.4v-7.4c0-5.3,2.5-13.6,13.6-13.6l10,0v11.1h-7.3
		c-1.2,0-2.9,0.6-2.9,3.1v6.8h10.3L88.9,54.2z M88.9,54.2"/>
</g>
</svg>
