<?xml version="1.0" encoding="utf-8"?>
<!-- Generator: Adobe Illustrator 19.0.0, SVG Export Plug-In . SVG Version: 6.00 Build 0)  -->
<svg version="1.1" id="Layer_1" xmlns="http://www.w3.org/2000/svg" xmlns:xlink="http://www.w3.org/1999/xlink" x="0px" y="0px"
	 viewBox="0 0 1100 110" style="enable-background:new 0 0 1100 110;" xml:space="preserve">
<style type="text/css">
	.st0{fill:#FFFFFF;}
</style>
<path id="XMLID_1_" class="st0" d="M63.5,0c-19.1,0-38,14.8-43.1,33.8L3.5,96.9L0,110h13.6h1022.9c19.1,0,38-14.8,43.1-33.8
	l16.9-63.1L1100,0h-13.6H63.5z M1074.5,74.9c-4.5,16.8-21.2,29.9-38.1,29.9H6.8l18.7-69.6C30,18.4,46.7,5.2,63.5,5.2h1029.7
	L1074.5,74.9z M640.1,31.5L640.1,31.5l0.1,5.2h0l0.1,5.2h0l0.1,5.2h0l0.1,5.2h0l0.1,5.2h0l0.1,5.2h0l0.1,5.2h0l0.1,5.2h0l0.1,5.2h0
	l0.2,11.9h35.4l6.6-11.9h0l2.9-5.2h0l2.9-5.2h0l2.9-5.2h0l2.9-5.2h0l2.9-5.2h0l2.9-5.2h0l2.9-5.2h0l2.9-5.2h0l2.9-5.2h0l6.5-11.7h0
	l0,0h-30.2L666.8,61l3.2-41.3h-30.2l0,0h0L640.1,31.5z M642.9,41.9h22.8l-0.4,5.2H643L642.9,41.9z M643.1,52.3h21.8l-0.4,5.2h-21.3
	L643.1,52.3z M680.3,78.4h-36.7l-0.1-5.2h39.7L680.3,78.4z M683.2,31.5h23.2l-2.9,5.2h-22.7L683.2,31.5z M678.4,41.9h22.2l-2.9,5.2
	H676L678.4,41.9z M673.7,52.3h21.2l-2.9,5.2h-20.6L673.7,52.3z M689,62.8l-2.9,5.2h-42.7l-0.1-5.2H689z M666.5,31.5l-0.4,5.2h-23.3
	l-0.1-5.2H666.5z M419.1,90.2l3.2-11.9h0l1.4-5.2h0l1.4-5.2h0l1.4-5.2h0l1.4-5.2h0l1.4-5.2h0l1.4-5.2h0l1.4-5.2h0l1.4-5.2h0l1.4-5.2
	h0l3.1-11.7h0l0,0h-27.1L392,90.2h0l0,0H419.1z M410.4,31.5h21.7l-1.4,5.2H409L410.4,31.5z M407.7,41.9h21.7l-1.4,5.2h-21.7
	L407.7,41.9z M404.9,52.3h21.7l-1.4,5.2h-21.7L404.9,52.3z M402.1,62.8h21.7l-1.4,5.2h-21.7L402.1,62.8z M399.3,73.2H421l-1.4,5.2
	h-21.7L399.3,73.2z M883.9,91.8c13.2,0,24.4-5.8,30.7-13.4h0c1.4-1.7,2.6-3.4,3.5-5.2h0c0.7-1.3,1.2-2.7,1.6-4.1c0,0,0,0,0,0l0,0
	c5.9-22.1-22.1-22.2-20.9-27.2c0.4-1.5,2.4-3,5-3c3.9,0,7,1.6,9.1,3h0.1c1.8,1.3,2.9,2.5,2.9,2.5l2.3-2.5h0l4.8-5.2h0l4.8-5.2h0
	l2-2.2c0,0,0,0,0,0l0,0c0,0-6.4-11.1-25.2-11.1c-18.2,0-32.7,11.1-35.8,22.7c0,0,0,0,0,0v0c-0.1,0.3-0.2,0.7-0.2,1h0
	c-0.4,1.9-0.6,3.6-0.6,5.2h0c0,0.1,0,0.3,0,0.4c0,0.3,0,0.6,0.1,0.9c0,0.3,0.1,0.6,0.1,0.8c0,0.2,0,0.4,0.1,0.5
	c0.2,0.9,0.4,1.7,0.8,2.5h0c0.9,2.1,2.2,3.8,3.7,5.2h0c2.5,2.3,5.6,3.9,8.5,5.2h0.1c4.7,2.1,8.7,3.3,8.3,5.2h0c0,0,0,0.1,0,0.1
	c-0.4,1.5-2.4,3-5,3c-10.4,0-16-6.5-16-6.5l-14,15.1c0,0,0,0,0,0l0,0C854.8,79.7,861,91.8,883.9,91.8z M877.5,31.5h46.7l-4.8,5.2
	h-11.7c-1.2-0.3-2.5-0.4-3.9-0.4c-1,0-1.9,0.2-2.8,0.4h-27.6C874.5,34.9,875.9,33.1,877.5,31.5z M871.3,41.9h24.9
	c-0.3,2.4,1.7,3.9,4.3,5.2h-29.8C870.6,45.6,870.8,43.8,871.3,41.9z M877.1,57.5c-2.2-1.4-4-3.1-5.1-5.2h39.3c2.2,1.4,4,3.1,5.2,5.2
	H877.1z M888,62.8h29.9c0.1,1.6-0.1,3.3-0.6,5.2h-24.9C892.6,65.5,890.6,64,888,62.8z M864.3,73.2h15.3c1.6,0.3,3.3,0.5,5.1,0.5
	c1,0,2-0.2,2.9-0.5h27.5c-1.1,1.8-2.4,3.6-4,5.2h-51.6L864.3,73.2z M776.4,90.2L776.4,90.2l27.1,0l3.2-11.9h0l1.4-5.2h0l1.4-5.2h0
	l0.2-0.9l7.2,22.8l0.1,0.4h31.3l0,0h0L837.9,63c0,0,0.2-0.1,0.5-0.3h0.1c1.1-0.6,3.7-2.2,6.4-5.2h0c1.3-1.4,2.7-3.1,3.9-5.2h0
	c0.1-0.2,0.3-0.4,0.4-0.7c0,0,0,0,0,0c0.2-0.3,0.3-0.6,0.5-0.9c0-0.1,0.1-0.1,0.1-0.2c0.2-0.3,0.3-0.6,0.5-0.9
	c0-0.1,0.1-0.1,0.1-0.2c0.3-0.7,0.7-1.5,1-2.3h0c0.5-1.2,0.9-2.4,1.2-3.7c3.9-14.6-3.8-24.7-26.8-24.7c-15.6,0-30.5,1-30.5,1
	L776.4,90.2L776.4,90.2z M812.2,66.3l-1.1-3.5H835l0.5,1.2l1.5,4h-24.3L812.2,66.3z M839,73.2l2,5.2h-25l-1.7-5.2H839z M850.1,42.7
	c-0.4,1.6-0.9,3.1-1.5,4.4h-22.1c0.7-0.9,1.2-2,1.5-3.1c0.2-0.7,0.3-1.4,0.3-2.1h22C850.2,42.2,850.1,42.4,850.1,42.7z M794.9,31.5
	h55.2c0.6,1.6,0.9,3.3,0.9,5.2h-25.4c-1.3-0.9-3-1.5-4.9-1.5h-3.1h-2l-0.4,1.5h-21.7L794.9,31.5z M815.1,47.1l1.4-5.2h0l1.1-4h3.1
	c3,0,4.9,1.7,4.9,4h0c0,0.5,0,1-0.2,1.5c-0.4,1.5-1.4,2.9-2.8,3.9c0,0,0,0,0,0c-1.4,1-3.1,1.6-4.9,1.6h-3.1L815.1,47.1L815.1,47.1z
	 M792.1,41.9h21.7l-1.4,5.2h-21.7L792.1,41.9z M789.3,52.3h56.4c-1.5,2.2-3.1,3.9-4.5,5.2h-53.3L789.3,52.3z M786.5,62.8h21.7
	l-1,3.6l-0.4,1.6h-21.7L786.5,62.8z M783.7,73.2h21.7l-1.4,5.2h-21.7L783.7,73.2z M707.6,90.2L707.6,90.2l58.4,0l3.2-11.9h0l1.4-5.2
	h0l0.8-3.1h0l0,0h-31.3l0.6-2.1h0l0.8-2.9h27.1l0.6-2.3h0l1.4-5.2h0l1.4-5.2h0l1.4-5.2h0l0.6-2.2h-27.1l0.8-3h0l0.5-2h29.2l0.9-3.2
	h0l1.4-5.2h0l3.1-11.7h0l0,0h-56.3L707.6,90.2L707.6,90.2z M726,31.5h50.9l-1.4,5.2h-50.9L726,31.5z M723.2,41.9h21.7l-0.6,2.3
	l-0.8,2.9h-21.7L723.2,41.9z M720.4,52.3h48.8l-1.4,5.2H719L720.4,52.3z M717.6,62.8h21.7l-0.4,1.6l-1,3.6h-21.7L717.6,62.8z
	 M714.8,73.2h53l-1.4,5.2h-53L714.8,73.2z M174.9,90.2L174.9,90.2l58.4,0l3.2-11.9h0l1.4-5.2h0l0.8-3.1h0l0,0h-31.3L208,68h0
	l0.8-2.9h27.1l0.6-2.3h0l1.4-5.2h0l1.4-5.2h0l1.4-5.2h0l0.6-2.2h-27.1l0.8-3h0l0.5-2h29.2l0.9-3.2h0l1.4-5.2h0l3.1-11.7h0l0,0h-56.3
	L174.9,90.2L174.9,90.2z M193.3,31.5h50.9l-1.4,5.2h-50.9L193.3,31.5z M190.5,41.9h21.7l-0.6,2.3l-0.8,2.9h-21.7L190.5,41.9z
	 M187.7,52.3h48.8l-1.4,5.2h-48.8L187.7,52.3z M185,62.8h21.7l-0.4,1.6l-1,3.6h-21.7L185,62.8z M182.2,73.2h53l-1.4,5.2h-53
	L182.2,73.2z M243.8,90.2L243.8,90.2l27.1,0l3.2-11.9h0l1.4-5.2h0l1.4-5.2h0l0.2-0.9l7.2,22.8l0.1,0.4h31.3l0,0h0L305.3,63
	c0,0,0.2-0.1,0.5-0.3h0.1c1.1-0.6,3.7-2.2,6.4-5.2h0c1.3-1.4,2.7-3.1,3.9-5.2h0c0.1-0.2,0.3-0.4,0.4-0.7c0,0,0,0,0,0
	c0.2-0.3,0.3-0.6,0.5-0.9c0-0.1,0.1-0.1,0.1-0.2c0.2-0.3,0.3-0.6,0.5-0.9c0-0.1,0.1-0.1,0.1-0.2c0.3-0.7,0.7-1.5,1-2.3h0
	c0.5-1.2,0.9-2.4,1.2-3.7c3.9-14.6-3.8-24.7-26.8-24.7c-15.6,0-30.5,1-30.5,1L243.8,90.2L243.8,90.2z M279.6,66.3l-1.1-3.5h23.9
	l0.5,1.2l1.5,4h-24.3L279.6,66.3z M306.4,73.2l2,5.2h-25l-1.7-5.2H306.4z M317.4,42.7c-0.4,1.6-0.9,3.1-1.5,4.4h-22.1
	c0.7-0.9,1.2-2,1.5-3.1c0.2-0.7,0.3-1.4,0.3-2.1h22C317.5,42.2,317.5,42.4,317.4,42.7z M262.2,31.5h55.2c0.6,1.6,0.9,3.3,0.9,5.2
	h-25.4c-1.3-0.9-3-1.5-4.9-1.5h-3.1h-2l-0.4,1.5h-21.7L262.2,31.5z M282.4,47.1l1.4-5.2h0l1.1-4h3.1c3,0,4.9,1.7,4.9,4h0
	c0,0.5,0,1-0.2,1.5c-0.4,1.5-1.4,2.9-2.8,3.9c0,0,0,0,0,0c-1.4,1-3.1,1.6-4.9,1.6H282L282.4,47.1L282.4,47.1z M259.4,41.9h21.7
	l-1.4,5.2H258L259.4,41.9z M256.6,52.3h56.4c-1.5,2.2-3.1,3.9-4.5,5.2h-53.3L256.6,52.3z M253.8,62.8h21.7l-1,3.6l-0.4,1.6h-21.7
	L253.8,62.8z M251,73.2h21.7l-1.4,5.2h-21.7L251,73.2z M523.6,60.3c-0.1,0.8-0.2,1.6-0.2,2.4c0,0,0,0.1,0,0.1h0
	c-0.1,1.8,0,3.5,0.1,5.2h0c0.2,1.6,0.5,3.2,0.9,4.6c0,0,0,0,0,0c0.1,0.2,0.1,0.4,0.2,0.5h0c0.6,1.8,1.3,3.6,2.3,5.2h0
	c4.8,8.2,14.1,13.4,26.5,13.4c20.9,0,33.5-12.1,33.5-12.1l0.3-1.3h0l1.4-5.2h0l1.4-5.2h0l1.4-5.2h0l1.4-5.2h0l0.7-2.6h-25L565.2,67
	c0,0-1,0-2.1,0c-4.5,0-7.7-1.9-9.1-5.1c0,0,0-0.1,0-0.1c-0.1-0.3-0.2-0.5-0.3-0.8c0-0.1-0.1-0.2-0.1-0.3c-0.1-0.2-0.1-0.5-0.2-0.8
	c0-0.1,0-0.3-0.1-0.5c0-0.2-0.1-0.5-0.1-0.8c0-0.2,0-0.4,0-0.6c0-1,0.2-2.1,0.5-3.2c0.2-0.9,0.6-1.8,1-2.6h0c0.9-2,2.3-3.8,3.9-5.2
	h0c2.9-2.6,6.8-4.2,10.9-4.2c5,0,8.8,2.6,10.7,4.2h-0.1c0.9,0.8,1.4,1.3,1.4,1.3l1.2-1.3h0l4.8-5.2h0l4.8-5.2h0l4.8-5.2h0l2-2.2
	c0,0,0,0,0,0l0,0c0,0-6.4-11.1-26.2-11.1c-21.9,0-42.9,16.1-48.4,36.8c-0.2,0.9-0.4,1.7-0.6,2.6h0c0,0,0,0,0,0.1
	c-0.2,0.8-0.3,1.6-0.4,2.4C523.6,60.1,523.6,60.2,523.6,60.3z M567.7,67.7l1.3-5h19.6l-1.4,5.2h-19.6L567.7,67.7z M585.9,73.2
	l-1.3,5c-0.1,0.1-0.2,0.1-0.2,0.2H530c-1.1-1.6-2-3.4-2.6-5.2H585.9z M581.5,44.7c-1.1-0.9-2.7-2-4.6-2.8h7.2L581.5,44.7z
	 M543.6,31.5h50.1l-4.8,5.2h-51C539.7,34.8,541.6,33.1,543.6,31.5z M533.7,41.9h28.2c-2.7,1.2-5,3-6.9,5.2h-24.5
	C531.4,45.3,532.5,43.6,533.7,41.9z M527.1,55.6c0.3-1.1,0.7-2.2,1-3.3H552c-0.2,0.6-0.5,1.3-0.7,2c-0.3,1.1-0.5,2.2-0.5,3.3h-24.1
	C526.8,56.9,527,56.3,527.1,55.6z M526,62.8h25.6c0.4,0.9,0.8,1.7,1.4,2.5c0.9,1.1,1.9,2,3.2,2.7h-30
	C525.9,66.3,525.9,64.5,526,62.8z M1009.6,48.4c0,0.3,0.1,0.6,0.1,0.9c0,0.2,0,0.4,0.1,0.5c0.2,0.9,0.4,1.7,0.8,2.5h0
	c0.9,2.1,2.2,3.8,3.7,5.2h0c2.5,2.3,5.6,3.9,8.5,5.2h0.1c4.7,2.1,8.7,3.3,8.3,5.2h0c0,0,0,0.1,0,0.1c-0.4,1.5-2.4,3-5,3
	c-10.4,0-16-6.5-16-6.5l-14,15.1c0,0,0,0,0,0l0,0c0,0,6.1,12.1,29.1,12.1c13.2,0,24.4-5.8,30.7-13.4h0c1.4-1.7,2.6-3.4,3.5-5.2h0
	c0.1-0.3,0.3-0.6,0.4-0.9c0,0,0,0,0,0c0.5-1.1,0.9-2.1,1.2-3.2c0,0,0,0,0,0c0,0,0,0,0,0c5.9-22.1-22.1-22.2-20.9-27.2
	c0.4-1.5,2.4-3,5-3c3.9,0,7,1.6,9.1,3h0.1c1.8,1.3,2.9,2.5,2.9,2.5l2.3-2.5h0l4.8-5.2h0l4.8-5.2h0l2-2.2c0,0,0,0,0,0l0,0
	c0,0-6.4-11.1-25.2-11.1c-18.2,0-32.7,11.1-35.8,22.7c0,0,0,0,0,0c0,0,0,0,0,0c-0.1,0.3-0.2,0.7-0.2,1h0c-0.4,1.9-0.6,3.6-0.6,5.2h0
	c0,0.1,0,0.3,0,0.4C1009.5,47.8,1009.5,48.1,1009.6,48.4z M1052.5,78.4h-51.6l4.8-5.2h15.3c1.6,0.3,3.3,0.5,5.1,0.5
	c1,0,2-0.2,2.9-0.5h27.5C1055.5,75,1054.1,76.7,1052.5,78.4z M1058.7,68h-24.9c0.2-2.4-1.7-3.9-4.4-5.2h29.9
	C1059.4,64.3,1059.2,66,1058.7,68z M1057.9,57.5h-39.4c-2.2-1.4-4-3.1-5.1-5.2h39.3C1055,53.8,1056.8,55.4,1057.9,57.5z
	 M1018.9,31.5h46.7l-4.8,5.2h-11.7c-1.2-0.3-2.5-0.4-3.9-0.4c-1,0-1.9,0.2-2.8,0.4h-27.6C1015.9,34.9,1017.3,33.1,1018.9,31.5z
	 M1012.7,41.9h24.9c-0.3,2.4,1.7,3.9,4.3,5.2h-29.8C1012,45.6,1012.2,43.8,1012.7,41.9z M381.5,90.2l3.2-11.9h0l1.4-5.2h0l1.4-5.2h0
	l0.2-0.9h-28.1l1.1-4.3h0l1.4-5.2h0l1.4-5.2h0l1.4-5.2h0l1.4-5.2h0l1.4-5.2h0l1.4-5.2h0l3.1-11.7h0l0,0h-27.1l-18.9,70.5h0l0,0
	H381.5z M344.7,31.5h21.7l-1.4,5.2h-21.7L344.7,31.5z M341.9,41.9h21.7l-1.4,5.2h-21.7L341.9,41.9z M339.1,52.3h21.7l-1.4,5.2h-21.7
	L339.1,52.3z M336.3,62.8H358l-1,3.6l-0.4,1.6h-21.7L336.3,62.8z M333.5,73.2h49.9l-1.4,5.2h-49.9L333.5,73.2z M42.5,40.9
	C42.5,40.9,42.5,40.9,42.5,40.9C42.5,40.9,42.5,40.9,42.5,40.9c-0.1,0.4-0.2,0.7-0.2,1h0c-0.4,1.9-0.6,3.6-0.6,5.2h0
	c0,0.1,0,0.3,0,0.4c0,0.3,0,0.6,0.1,0.9c0,0.3,0.1,0.6,0.1,0.9c0,0.2,0,0.4,0.1,0.5c0.2,0.9,0.4,1.7,0.8,2.5h0
	c0.9,2.1,2.2,3.8,3.7,5.2h0c2.5,2.3,5.6,3.9,8.5,5.2h0.1c4.7,2.1,8.7,3.3,8.3,5.2h0c0,0,0,0.1,0,0.1c-0.4,1.5-2.4,3-5,3
	c-10.4,0-16-6.5-16-6.5l-14,15.1c0,0,0,0,0,0l0,0c0,0,6.1,12.1,29.1,12.1c13.2,0,24.4-5.8,30.7-13.4h0c1.4-1.7,2.6-3.4,3.5-5.2h0
	c0.7-1.3,1.2-2.7,1.6-4.1c0-0.1,0.1-0.2,0.1-0.4C99,46.9,71.2,46.9,72.5,41.9c0.4-1.5,2.4-3,5-3c3.9,0,7,1.6,9.1,3h0.1
	c1.8,1.3,2.9,2.5,2.9,2.5l2.3-2.5h0l4.8-5.2h0l4.8-5.2h0l2-2.2c0,0,0,0,0,0l0,0c0,0-6.4-11.1-25.2-11.1
	C60.1,18.2,45.6,29.3,42.5,40.9z M84.7,78.4H33.2l4.8-5.2h15.3c1.6,0.3,3.3,0.5,5.1,0.5c1,0,2-0.2,2.9-0.5h27.5
	C87.7,75,86.4,76.7,84.7,78.4z M90.9,68H66c0.2-2.4-1.7-3.9-4.4-5.2h29.9C91.6,64.3,91.4,66,90.9,68z M90.2,57.5H50.8
	c-2.2-1.4-4-3.1-5.1-5.2H85C87.2,53.8,89,55.4,90.2,57.5z M74.1,47.1H44.3c0-1.6,0.2-3.3,0.6-5.2h24.9
	C69.6,44.3,71.5,45.8,74.1,47.1z M97.9,31.5l-4.8,5.2H81.4c-1.2-0.3-2.5-0.4-3.9-0.4c-1,0-1.9,0.2-2.8,0.4H47.1
	c1.1-1.8,2.4-3.6,4.1-5.2H97.9z M924.5,90.2L924.5,90.2l58.4,0l3.2-11.9h0l1.4-5.2h0l0.8-3.1h0l0,0H957l0.6-2.1h0l0.8-2.9h27.1
	l0.6-2.3h0l1.4-5.2h0l1.4-5.2h0l1.4-5.2h0l0.6-2.2h-27.1l0.8-3h0l0.5-2h29.2l0.9-3.2h0l1.4-5.2h0l3.1-11.7h0l0,0h-56.3L924.5,90.2
	L924.5,90.2z M943,31.5h50.9l-1.4,5.2h-50.9L943,31.5z M940.2,41.9h21.7l-0.6,2.3l-0.8,2.9h-21.7L940.2,41.9z M937.4,52.3h48.8
	l-1.4,5.2H936L937.4,52.3z M934.6,62.8h21.7l-0.4,1.6l-1,3.6h-21.7L934.6,62.8z M931.8,73.2h53l-1.4,5.2h-53L931.8,73.2z
	 M117.5,90.2L117.5,90.2L117.5,90.2l27.1,0l3.2-11.9h0l1.4-5.2h0l1.4-5.2h0l1.4-5.2h0l1.4-5.2h0l1.4-5.2h0l1.4-5.2h0l1.1-4.2h19.8
	l0.3-1h0l1.4-5.2h0l1.4-5.2h0l3.1-11.7h0l0,0h-66.7l-6.2,23.2h19.8L117.5,90.2z M145.1,78.4h-21.7l1.4-5.2h21.7L145.1,78.4z
	 M147.8,68h-21.7l1.4-5.2h21.7L147.8,68z M150.6,57.5h-21.7l1.4-5.2H152L150.6,57.5z M154.8,42.2l-1.3,4.9h-21.7l1-3.6l0.4-1.6h21.7
	L154.8,42.2z M114.7,36.7l1.4-5.2h61.3l-1.4,5.2H114.7z M429.6,90.2L429.6,90.2l27.1,0l3.2-11.9h0l1.4-5.2h0l1.4-5.2h0l1.4-5.2h0
	l1-3.7l1.1,3.7h0l1.6,5.2h0l1.6,5.2h0l1.6,5.2h0l3.6,11.9h30.2l3.2-11.9h0l1.4-5.2h0l1.4-5.2h0l1.4-5.2h0l1.4-5.2h0l1.4-5.2h0
	l1.4-5.2h0l1.4-5.2h0l1.4-5.2h0l1.4-5.2h0l3.1-11.7h0l0,0h-27.1l-8.4,31.2l-9.4-31.2h-30.2L429.6,90.2L429.6,90.2z M505.2,78.4
	h-31.5l-1.6-5.2h34.5L505.2,78.4z M496,31.5h21.7l-1.4,5.2h-21.7L496,31.5z M493.2,41.9h21.7l-1.4,5.2h-21.7L493.2,41.9z
	 M490.4,52.3h21.7l-1.4,5.2H489L490.4,52.3z M509.4,62.8L508,68h-37.4l-1.6-5.2H509.4z M487.4,57.5h-20l-1.6-5.2h20L487.4,57.5z
	 M448.1,31.5h31.5l1.6,5.2h-34.5L448.1,31.5z M445.3,41.9h37.4l1.6,5.2h-40.4L445.3,41.9z M442.5,52.3h21.7l-1.4,5.2h-21.7
	L442.5,52.3z M439.7,62.8h21.7L460,68h-21.7L439.7,62.8z M436.9,73.2h21.7l-1.4,5.2h-21.7L436.9,73.2z"/>
</svg>
