<svg xmlns="http://www.w3.org/2000/svg" viewBox="0 0 1100 110"><path d="M63.5 0c-19.1 0-38 14.8-43.1 33.8L0 110h1036.5c19.1 0 38-14.8 43.1-33.8L1100 0H63.5zm1011 74.9c-4.5 16.8-21.2 29.9-38.1 29.9H6.8l18.7-69.6c4.5-16.8 21.2-30 38-30h1029.7l-18.7 69.7zM640.1 31.5l1.1 58.7h35.4l9.5-17.1 29.7-53.3h-30.2L666.8 61l3.2-41.3h-30.2l.3 11.8zm2.8 10.4h22.8l-.4 5.2H643l-.1-5.2zm.2 10.4h21.8l-.4 5.2h-21.3l-.1-5.2zm37.2 26.1h-36.7l-.1-5.2h39.7l-2.9 5.2zm2.9-46.9h23.2l-2.9 5.2h-22.7l2.4-5.2zm-4.8 10.4h22.2l-2.9 5.2H676l2.4-5.2zm-4.7 10.4h21.2l-2.9 5.2h-20.6l2.3-5.2zM689 62.8l-2.9 5.2h-42.7l-.1-5.2H689zm-22.5-31.3l-.4 5.2h-23.3l-.1-5.2h23.8zM419.1 90.2l15.8-58.7 3.1-11.7h-27.1L392 90.2h27.1zm-8.7-58.7h21.7l-1.4 5.2H409l1.4-5.2zm-2.7 10.4h21.7l-1.4 5.2h-21.7l1.4-5.2zm-2.8 10.4h21.7l-1.4 5.2h-21.7l1.4-5.2zm-2.8 10.5h21.7l-1.4 5.2h-21.7l1.4-5.2zm-2.8 10.4H421l-1.4 5.2h-21.7l1.4-5.2zm484.6 18.6c13.2 0 24.4-5.8 30.7-13.4 1.4-1.7 2.6-3.4 3.5-5.2.7-1.3 1.2-2.7 1.6-4.1 5.9-22.1-22.1-22.2-20.9-27.2.4-1.5 2.4-3 5-3 3.9 0 7 1.6 9.1 3h.1c1.8 1.3 2.9 2.5 2.9 2.5l2.3-2.5 9.6-10.4 2-2.2s-6.4-11.1-25.2-11.1c-18.2 0-32.7 11.1-35.8 22.7-.1.3-.2.7-.2 1-.4 1.9-.6 3.6-.6 5.2v.4c0 .3 0 .6.1.9 0 .3.1.6.1.8s0 .4.1.5c.2.9.4 1.7.8 2.5.9 2.1 2.2 3.8 3.7 5.2 2.5 2.3 5.6 3.9 8.5 5.2h.1c4.7 2.1 8.7 3.3 8.3 5.2v.1c-.4 1.5-2.4 3-5 3-10.4 0-16-6.5-16-6.5l-14 15.1c.1.2 6.3 12.3 29.2 12.3zm-6.4-60.3h46.7l-4.8 5.2h-11.7c-1.2-.3-2.5-.4-3.9-.4-1 0-1.9.2-2.8.4h-27.6a28.39 28.39 0 0 1 4.1-5.2zm-6.2 10.4h24.9c-.3 2.4 1.7 3.9 4.3 5.2h-29.8c-.1-1.5.1-3.3.6-5.2zm5.8 15.6c-2.2-1.4-4-3.1-5.1-5.2h39.3c2.2 1.4 4 3.1 5.2 5.2h-39.4zm10.9 5.3h29.9c.1 1.6-.1 3.3-.6 5.2h-24.9c.2-2.5-1.8-4-4.4-5.2zm-23.7 10.4h15.3c1.6.3 3.3.5 5.1.5 1 0 2-.2 2.9-.5h27.5c-1.1 1.8-2.4 3.6-4 5.2h-51.6l4.8-5.2zm-87.9 17h27.1l6-22.3.2-.9 7.2 22.8.1.4h31.3L837.9 63s.2-.1.5-.3h.1c1.1-.6 3.7-2.2 6.4-5.2 1.3-1.4 2.7-3.1 3.9-5.2.1-.2.3-.4.4-.7.2-.3.3-.6.5-.9 0-.1.1-.1.1-.2.2-.3.3-.6.5-.9 0-.1.1-.1.1-.2.3-.7.7-1.5 1-2.3a22.85 22.85 0 0 0 1.2-3.7c3.9-14.6-3.8-24.7-26.8-24.7-15.6 0-30.5 1-30.5 1l-18.9 70.5zm35.8-23.9l-1.1-3.5H835l.5 1.2 1.5 4h-24.3l-.5-1.7zm26.8 6.9l2 5.2h-25l-1.7-5.2H839zm11.1-30.5c-.4 1.6-.9 3.1-1.5 4.4h-22.1c.7-.9 1.2-2 1.5-3.1.2-.7.3-1.4.3-2.1h22c-.1.3-.2.5-.2.8zm-55.2-11.2h55.2c.6 1.6.9 3.3.9 5.2h-25.4c-1.3-.9-3-1.5-4.9-1.5h-5.1l-.4 1.5h-21.7l1.4-5.2zm20.2 15.6l1.4-5.2 1.1-4h3.1c3 0 4.9 1.7 4.9 4 0 .5 0 1-.2 1.5-.4 1.5-1.4 2.9-2.8 3.9s-3.1 1.6-4.9 1.6h-3.1l.5-1.8zm-23-5.2h21.7l-1.4 5.2h-21.7l1.4-5.2zm-2.8 10.4h56.4c-1.5 2.2-3.1 3.9-4.5 5.2h-53.3l1.4-5.2zm-2.8 10.5h21.7l-1 3.6-.4 1.6h-21.7l1.4-5.2zm-2.8 10.4h21.7l-1.4 5.2h-21.7l1.4-5.2zm-76.1 17H766l4.6-17.1.8-3.1h-31.3l.6-2.1.8-2.9h27.1l.6-2.3 4.2-15.6.6-2.2h-27.1l.8-3 .5-2h29.2l.9-3.2 1.4-5.2 3.1-11.7h-56.3l-18.9 70.4zM726 31.5h50.9l-1.4 5.2h-50.9l1.4-5.2zm-2.8 10.4h21.7l-.6 2.3-.8 2.9h-21.7l1.4-5.2zm-2.8 10.4h48.8l-1.4 5.2H719l1.4-5.2zm-2.8 10.5h21.7l-.4 1.6-1 3.6h-21.7l1.4-5.2zm-2.8 10.4h53l-1.4 5.2h-53l1.4-5.2zm-539.9 17h58.4l4.6-17.1.8-3.1h-31.3l.6-2 .8-2.9h27.1l.6-2.3 4.2-15.6.6-2.2h-27.1l.8-3 .5-2h29.2l.9-3.2 1.4-5.2 3.1-11.7h-56.3l-18.9 70.3zm18.4-58.7h50.9l-1.4 5.2h-50.9l1.4-5.2zm-2.8 10.4h21.7l-.6 2.3-.8 2.9h-21.7l1.4-5.2zm-2.8 10.4h48.8l-1.4 5.2h-48.8l1.4-5.2zM185 62.8h21.7l-.4 1.6-1 3.6h-21.7l1.4-5.2zm-2.8 10.4h53l-1.4 5.2h-53l1.4-5.2zm61.6 17h27.1l6-22.3.2-.9 7.2 22.8.1.4h31.3L305.3 63s.2-.1.5-.3h.1c1.1-.6 3.7-2.2 6.4-5.2 1.3-1.4 2.7-3.1 3.9-5.2.1-.2.3-.4.4-.7.2-.3.3-.6.5-.9 0-.1.1-.1.1-.2.2-.3.3-.6.5-.9 0-.1.1-.1.1-.2.3-.7.7-1.5 1-2.3a22.85 22.85 0 0 0 1.2-3.7c3.9-14.6-3.8-24.7-26.8-24.7-15.6 0-30.5 1-30.5 1l-18.9 70.5zm35.8-23.9l-1.1-3.5h23.9l.5 1.2 1.5 4h-24.3l-.5-1.7zm26.8 6.9l2 5.2h-25l-1.7-5.2h24.7zm11-30.5c-.4 1.6-.9 3.1-1.5 4.4h-22.1c.7-.9 1.2-2 1.5-3.1.2-.7.3-1.4.3-2.1h22c-.1.3-.1.5-.2.8zm-55.2-11.2h55.2c.6 1.6.9 3.3.9 5.2h-25.4c-1.3-.9-3-1.5-4.9-1.5h-5.1l-.4 1.5h-21.7l1.4-5.2zm20.2 15.6l1.4-5.2 1.1-4h3.1c3 0 4.9 1.7 4.9 4 0 .5 0 1-.2 1.5-.4 1.5-1.4 2.9-2.8 3.9s-3.1 1.6-4.9 1.6h-3l.4-1.8zm-23-5.2h21.7l-1.4 5.2H258l1.4-5.2zm-2.8 10.4H313c-1.5 2.2-3.1 3.9-4.5 5.2h-53.3l1.4-5.2zm-2.8 10.5h21.7l-1 3.6-.4 1.6h-21.7l1.4-5.2zM251 73.2h21.7l-1.4 5.2h-21.7l1.4-5.2zm272.6-12.9c-.1.8-.2 1.6-.2 2.4v.1c-.1 1.8 0 3.5.1 5.2.2 1.6.5 3.2.9 4.6.1.2.1.4.2.5.6 1.8 1.3 3.6 2.3 5.2 4.8 8.2 14.1 13.4 26.5 13.4 20.9 0 33.5-12.1 33.5-12.1l.3-1.3 6.3-23.4h-25L565.2 67h-2.1c-4.5 0-7.7-1.9-9.1-5.1v-.1c-.1-.3-.2-.5-.3-.8 0-.1-.1-.2-.1-.3-.1-.2-.1-.5-.2-.8 0-.1 0-.3-.1-.5 0-.2-.1-.5-.1-.8V58c0-1 .2-2.1.5-3.2.2-.9.6-1.8 1-2.6.9-2 2.3-3.8 3.9-5.2 2.9-2.6 6.8-4.2 10.9-4.2 5 0 8.8 2.6 10.7 4.2h-.1c.9.8 1.4 1.3 1.4 1.3l15.6-16.9 2-2.2s-6.4-11.1-26.2-11.1c-21.9 0-42.9 16.1-48.4 36.8l-.6 2.6v.1c-.2.8-.3 1.6-.4 2.4.1.1.1.2.1.3zm44.1 7.4l1.3-5h19.6l-1.4 5.2h-19.6l.1-.2zm18.2 5.5l-1.3 5c-.1.1-.2.1-.2.2H530c-1.1-1.6-2-3.4-2.6-5.2h58.5zm-4.4-28.5c-1.1-.9-2.7-2-4.6-2.8h7.2l-2.6 2.8zm-37.9-13.2h50.1l-4.8 5.2h-51c1.8-1.9 3.7-3.6 5.7-5.2zm-9.9 10.4h28.2c-2.7 1.2-5 3-6.9 5.2h-24.5c.9-1.8 2-3.5 3.2-5.2zm-6.6 13.7c.3-1.1.7-2.2 1-3.3H552c-.2.6-.5 1.3-.7 2-.3 1.1-.5 2.2-.5 3.3h-24.1c.1-.7.3-1.3.4-2zm-1.1 7.2h25.6c.4.9.8 1.7 1.4 2.5.9 1.1 1.9 2 3.2 2.7h-30c-.3-1.7-.3-3.5-.2-5.2zm483.6-14.4c0 .3.1.6.1.9 0 .2 0 .4.1.5.2.9.4 1.7.8 2.5.9 2.1 2.2 3.8 3.7 5.2 2.5 2.3 5.6 3.9 8.5 5.2h.1c4.7 2.1 8.7 3.3 8.3 5.2v.1c-.4 1.5-2.4 3-5 3-10.4 0-16-6.5-16-6.5l-14 15.1s6.1 12.1 29.1 12.1c13.2 0 24.4-5.8 30.7-13.4 1.4-1.7 2.6-3.4 3.5-5.2.1-.3.3-.6.4-.9.5-1.1.9-2.1 1.2-3.2 5.9-22.1-22.1-22.2-20.9-27.2.4-1.5 2.4-3 5-3 3.9 0 7 1.6 9.1 3h.1c1.8 1.3 2.9 2.5 2.9 2.5l2.3-2.5 9.6-10.4 2-2.2s-6.4-11.1-25.2-11.1c-18.2 0-32.7 11.1-35.8 22.7-.1.3-.2.7-.2 1-.4 1.9-.6 3.6-.6 5.2v.4c.1.4.1.7.2 1zm42.9 30h-51.6l4.8-5.2h15.3c1.6.3 3.3.5 5.1.5 1 0 2-.2 2.9-.5h27.5c-1 1.8-2.4 3.5-4 5.2zm6.2-10.4h-24.9c.2-2.4-1.7-3.9-4.4-5.2h29.9c.1 1.5-.1 3.2-.6 5.2zm-.8-10.5h-39.4c-2.2-1.4-4-3.1-5.1-5.2h39.3c2.3 1.5 4.1 3.1 5.2 5.2zm-39-26h46.7l-4.8 5.2h-11.7c-1.2-.3-2.5-.4-3.9-.4-1 0-1.9.2-2.8.4h-27.6a28.39 28.39 0 0 1 4.1-5.2zm-6.2 10.4h24.9c-.3 2.4 1.7 3.9 4.3 5.2h-29.8c-.1-1.5.1-3.3.6-5.2zM381.5 90.2l6-22.3.2-.9h-28.1l1.1-4.3 8.4-31.2 3.1-11.7h-27.1l-18.9 70.5h55.3zm-36.8-58.7h21.7l-1.4 5.2h-21.7l1.4-5.2zm-2.8 10.4h21.7l-1.4 5.2h-21.7l1.4-5.2zm-2.8 10.4h21.7l-1.4 5.2h-21.7l1.4-5.2zm-2.8 10.5H358l-1 3.6-.4 1.6h-21.7l1.4-5.2zm-2.8 10.4h49.9l-1.4 5.2h-49.9l1.4-5.2zm-291-32.3c-.1.4-.2.7-.2 1-.4 1.9-.6 3.6-.6 5.2v.4c0 .3 0 .6.1.9 0 .3.1.6.1.9 0 .2 0 .4.1.5.2.9.4 1.7.8 2.5.9 2.1 2.2 3.8 3.7 5.2 2.5 2.3 5.6 3.9 8.5 5.2h.1c4.7 2.1 8.7 3.3 8.3 5.2v.1c-.4 1.5-2.4 3-5 3-10.4 0-16-6.5-16-6.5l-14 15.1s6.1 12.1 29.1 12.1c13.2 0 24.4-5.8 30.7-13.4 1.4-1.7 2.6-3.4 3.5-5.2.7-1.3 1.2-2.7 1.6-4.1 0-.1.1-.2.1-.4C99 46.9 71.2 46.9 72.5 41.9c.4-1.5 2.4-3 5-3 3.9 0 7 1.6 9.1 3h.1c1.8 1.3 2.9 2.5 2.9 2.5l2.3-2.5 9.6-10.4 2-2.2s-6.4-11.1-25.2-11.1c-18.2 0-32.7 11.1-35.8 22.7zm42.2 37.5H33.2l4.8-5.2h15.3c1.6.3 3.3.5 5.1.5 1 0 2-.2 2.9-.5h27.5a27.49 27.49 0 0 1-4.1 5.2zM90.9 68H66c.2-2.4-1.7-3.9-4.4-5.2h29.9c.1 1.5-.1 3.2-.6 5.2zm-.7-10.5H50.8c-2.2-1.4-4-3.1-5.1-5.2H85c2.2 1.5 4 3.1 5.2 5.2zM74.1 47.1H44.3c0-1.6.2-3.3.6-5.2h24.9c-.2 2.4 1.7 3.9 4.3 5.2zm23.8-15.6l-4.8 5.2H81.4c-1.2-.3-2.5-.4-3.9-.4-1 0-1.9.2-2.8.4H47.1c1.1-1.8 2.4-3.6 4.1-5.2h46.7zm826.6 58.7h58.4l4.6-17.1.8-3.1H957l.6-2.1.8-2.9h27.1l.6-2.3 4.2-15.6.6-2.2h-27.1l.8-3 .5-2h29.2l.9-3.2 1.4-5.2 3.1-11.7h-56.3l-18.9 70.4zM943 31.5h50.9l-1.4 5.2h-50.9l1.4-5.2zm-2.8 10.4h21.7l-.6 2.3-.8 2.9h-21.7l1.4-5.2zm-2.8 10.4h48.8l-1.4 5.2H936l1.4-5.2zm-2.8 10.5h21.7l-.4 1.6-1 3.6h-21.7l1.4-5.2zm-2.8 10.4h53l-1.4 5.2h-53l1.4-5.2zm-814.3 17h27.1l12.7-47.3h19.8l.3-1 2.8-10.4 3.1-11.7h-66.7L110.4 43h19.8l-12.7 47.2zm27.6-11.8h-21.7l1.4-5.2h21.7l-1.4 5.2zm2.7-10.4h-21.7l1.4-5.2h21.7l-1.4 5.2zm2.8-10.5h-21.7l1.4-5.2H152l-1.4 5.2zm4.2-15.3l-1.3 4.9h-21.7l1-3.6.4-1.6h21.7l-.1.3zm-40.1-5.5l1.4-5.2h61.3l-1.4 5.2h-61.3zm314.9 53.5h27.1l8.4-31.2 1.1 3.7 4.8 15.6 3.6 11.9h30.2l15.8-58.7 3.1-11.7h-27.1L488.2 51l-9.4-31.2h-30.2l-19 70.4zm75.6-11.8h-31.5l-1.6-5.2h34.5l-1.4 5.2zM496 31.5h21.7l-1.4 5.2h-21.7l1.4-5.2zm-2.8 10.4h21.7l-1.4 5.2h-21.7l1.4-5.2zm-2.8 10.4h21.7l-1.4 5.2H489l1.4-5.2zm19 10.5L508 68h-37.4l-1.6-5.2h40.4zm-22-5.3h-20l-1.6-5.2h20l1.6 5.2zm-39.3-26h31.5l1.6 5.2h-34.5l1.4-5.2zm-2.8 10.4h37.4l1.6 5.2h-40.4l1.4-5.2zm-2.8 10.4h21.7l-1.4 5.2h-21.7l1.4-5.2zm-2.8 10.5h21.7L460 68h-21.7l1.4-5.2zm-2.8 10.4h21.7l-1.4 5.2h-21.7l1.4-5.2z" fill="#fff"/></svg>