<?xml version="1.0" encoding="utf-8"?>
<!-- Generator: Adobe Illustrator 19.0.0, SVG Export Plug-In . SVG Version: 6.00 Build 0)  -->
<svg version="1.1" id="Layer_1" xmlns="http://www.w3.org/2000/svg" xmlns:xlink="http://www.w3.org/1999/xlink" x="0px" y="0px"
	 viewBox="0 0 1107.6 110" style="enable-background:new 0 0 1107.6 110;" xml:space="preserve">
<style type="text/css">
	.st0{fill:#FFFFFF;}
</style>
<path id="XMLID_1_" class="st0" d="M63.5,0c-19.1,0-38,14.8-43.1,33.8L3.5,96.9L0,110h13.6H1044c19.1,0,38-14.8,43.1-33.8l16.9-63.1
	l3.5-13.1H1094H63.5z M1082.1,74.9c-4.5,16.8-21.2,29.9-38.1,29.9H6.8l18.7-69.6C30,18.4,46.7,5.2,63.5,5.2h1037.3L1082.1,74.9z
	 M638.2,31.5L638.2,31.5l0.1,5.2h0l0.1,5.2h0l0.1,5.2h0l0.1,5.2h0l0.1,5.2h0l0.1,5.2h0L639,68h0l0.1,5.2h0l0.1,5.2h0l0.2,11.9h35.4
	l6.6-11.9h0l2.9-5.2h0l2.9-5.2h0l2.9-5.2h0l2.9-5.2h0l2.9-5.2h0l2.9-5.2h0l2.9-5.2h0l2.9-5.2h0l2.9-5.2h0l6.5-11.7h0l0,0h-30.2
	L665,61l3.2-41.3H638l0,0h0L638.2,31.5z M641,41.9h22.8l-0.4,5.2h-22.3L641,41.9z M641.2,52.3H663l-0.4,5.2h-21.3L641.2,52.3z
	 M678.4,78.4h-36.7l-0.1-5.2h39.7L678.4,78.4z M681.3,31.5h23.2l-2.9,5.2h-22.7L681.3,31.5z M676.6,41.9h22.2l-2.9,5.2h-21.7
	L676.6,41.9z M671.8,52.3h21.2l-2.9,5.2h-20.6L671.8,52.3z M687.1,62.8l-2.9,5.2h-42.7l-0.1-5.2H687.1z M664.7,31.5l-0.4,5.2h-23.3
	l-0.1-5.2H664.7z M426.8,90.2l3.2-11.9h0l1.4-5.2h0l1.4-5.2h0l1.4-5.2h0l1.4-5.2h0l1.4-5.2h0l1.4-5.2h0l1.4-5.2h0l1.4-5.2h0l1.4-5.2
	h0l3.1-11.7h0l0,0h-27.1l-18.9,70.5h0l0,0H426.8z M418.1,31.5h21.7l-1.4,5.2h-21.7L418.1,31.5z M415.3,41.9H437l-1.4,5.2h-21.7
	L415.3,41.9z M412.5,52.3h21.7l-1.4,5.2h-21.7L412.5,52.3z M409.7,62.8h21.7l-1.4,5.2h-21.7L409.7,62.8z M407,73.2h21.7l-1.4,5.2
	h-21.7L407,73.2z M883.4,91.8c13.2,0,24.4-5.8,30.7-13.4h0c1.4-1.7,2.6-3.4,3.5-5.2h0c0.7-1.3,1.2-2.7,1.6-4.1c0,0,0,0,0,0l0,0
	c5.9-22.1-22.1-22.2-20.9-27.2c0.4-1.5,2.4-3,5-3c3.9,0,7,1.6,9.1,3h0.1c1.8,1.3,2.9,2.5,2.9,2.5l2.3-2.5h0l4.8-5.2h0l4.8-5.2h0
	l2-2.2c0,0,0,0,0,0l0,0c0,0-6.4-11.1-25.2-11.1c-18.2,0-32.7,11.1-35.8,22.7c0,0,0,0,0,0v0c-0.1,0.3-0.2,0.7-0.2,1h0
	c-0.4,1.9-0.6,3.6-0.6,5.2h0c0,0.1,0,0.3,0,0.4c0,0.3,0,0.6,0.1,0.9c0,0.3,0.1,0.6,0.1,0.8c0,0.2,0,0.4,0.1,0.5
	c0.2,0.9,0.4,1.7,0.8,2.5h0c0.9,2.1,2.2,3.8,3.7,5.2h0c2.5,2.3,5.6,3.9,8.5,5.2h0.1c4.7,2.1,8.7,3.3,8.3,5.2h0c0,0,0,0.1,0,0.1
	c-0.4,1.5-2.4,3-5,3c-10.4,0-16-6.5-16-6.5l-14,15.1c0,0,0,0,0,0l0,0C854.3,79.7,860.4,91.8,883.4,91.8z M877,31.5h46.7l-4.8,5.2
	h-11.7c-1.2-0.3-2.5-0.4-3.9-0.4c-1,0-1.9,0.2-2.8,0.4h-27.6C874,34.9,875.4,33.1,877,31.5z M870.8,41.9h24.9
	c-0.3,2.4,1.7,3.9,4.3,5.2h-29.8C870.1,45.6,870.3,43.8,870.8,41.9z M876.6,57.5c-2.2-1.4-4-3.1-5.1-5.2h39.3c2.2,1.4,4,3.1,5.2,5.2
	H876.6z M887.5,62.8h29.9c0.1,1.6-0.1,3.3-0.6,5.2h-24.9C892.1,65.5,890.1,64,887.5,62.8z M863.8,73.2h15.3c1.6,0.3,3.3,0.5,5.1,0.5
	c1,0,2-0.2,2.9-0.5h27.5c-1.1,1.8-2.4,3.6-4,5.2H859L863.8,73.2z M775.1,90.2L775.1,90.2l27.1,0l3.2-11.9h0l1.4-5.2h0l1.4-5.2h0
	l0.2-0.9l7.2,22.8l0.1,0.4H847l0,0h0L836.6,63c0,0,0.2-0.1,0.5-0.3h0.1c1.1-0.6,3.7-2.2,6.4-5.2h0c1.3-1.4,2.7-3.1,3.9-5.2h0
	c0.1-0.2,0.3-0.4,0.4-0.7c0,0,0,0,0,0c0.2-0.3,0.3-0.6,0.5-0.9c0-0.1,0.1-0.1,0.1-0.2c0.2-0.3,0.3-0.6,0.5-0.9
	c0-0.1,0.1-0.1,0.1-0.2c0.3-0.7,0.7-1.5,1-2.3h0c0.5-1.2,0.9-2.4,1.2-3.7c3.9-14.6-3.8-24.7-26.8-24.7c-15.6,0-30.5,1-30.5,1
	L775.1,90.2L775.1,90.2z M810.9,66.3l-1.1-3.5h23.9l0.5,1.2l1.5,4h-24.3L810.9,66.3z M837.7,73.2l2,5.2h-25l-1.7-5.2H837.7z
	 M848.7,42.7c-0.4,1.6-0.9,3.1-1.5,4.4h-22.1c0.7-0.9,1.2-2,1.5-3.1c0.2-0.7,0.3-1.4,0.3-2.1h22C848.8,42.2,848.8,42.4,848.7,42.7z
	 M793.5,31.5h55.2c0.6,1.6,0.9,3.3,0.9,5.2h-25.4c-1.3-0.9-3-1.5-4.9-1.5h-3.1h-2l-0.4,1.5h-21.7L793.5,31.5z M813.7,47.1l1.4-5.2h0
	l1.1-4h3.1c3,0,4.9,1.7,4.9,4h0c0,0.5,0,1-0.2,1.5c-0.4,1.5-1.4,2.9-2.8,3.9c0,0,0,0,0,0c-1.4,1-3.1,1.6-4.9,1.6h-3.1L813.7,47.1
	L813.7,47.1z M790.7,41.9h21.7l-1.4,5.2h-21.7L790.7,41.9z M787.9,52.3h56.4c-1.5,2.2-3.1,3.9-4.5,5.2h-53.3L787.9,52.3z
	 M785.1,62.8h21.7l-1,3.6l-0.4,1.6h-21.7L785.1,62.8z M782.3,73.2H804l-1.4,5.2h-21.7L782.3,73.2z M706.2,90.2L706.2,90.2l58.4,0
	l3.2-11.9h0l1.4-5.2h0l0.8-3.1h0l0,0h-31.3l0.6-2.1h0L740,65h27.1l0.6-2.3h0l1.4-5.2h0l1.4-5.2h0l1.4-5.2h0l0.6-2.2h-27.1l0.8-3h0
	l0.5-2H776l0.9-3.2h0l1.4-5.2h0l3.1-11.7h0l0,0h-56.3L706.2,90.2L706.2,90.2z M724.6,31.5h50.9l-1.4,5.2h-50.9L724.6,31.5z
	 M721.8,41.9h21.7l-0.6,2.3l-0.8,2.9h-21.7L721.8,41.9z M719,52.3h48.8l-1.4,5.2h-48.8L719,52.3z M716.2,62.8H738l-0.4,1.6l-1,3.6
	h-21.7L716.2,62.8z M713.4,73.2h53l-1.4,5.2h-53L713.4,73.2z M181.8,90.2L181.8,90.2l58.4,0l3.2-11.9h0l1.4-5.2h0l0.8-3.1h0l0,0
	h-31.3l0.6-2.1h0l0.8-2.9h27.1l0.6-2.3h0l1.4-5.2h0l1.4-5.2h0l1.4-5.2h0l0.6-2.2h-27.1l0.8-3h0l0.5-2h29.2l0.9-3.2h0l1.4-5.2h0
	l3.1-11.7h0l0,0h-56.3L181.8,90.2L181.8,90.2z M200.2,31.5h50.9l-1.4,5.2h-50.9L200.2,31.5z M197.5,41.9h21.7l-0.6,2.3l-0.8,2.9
	h-21.7L197.5,41.9z M194.7,52.3h48.8l-1.4,5.2h-48.8L194.7,52.3z M191.9,62.8h21.7l-0.4,1.6l-1,3.6h-21.7L191.9,62.8z M189.1,73.2
	h53l-1.4,5.2h-53L189.1,73.2z M250.7,90.2L250.7,90.2l27.1,0l3.2-11.9h0l1.4-5.2h0l1.4-5.2h0L284,67l7.2,22.8l0.1,0.4h31.3l0,0h0
	L312.2,63c0,0,0.2-0.1,0.5-0.3h0.1c1.1-0.6,3.7-2.2,6.4-5.2h0c1.3-1.4,2.7-3.1,3.9-5.2h0c0.1-0.2,0.3-0.4,0.4-0.7c0,0,0,0,0,0
	c0.2-0.3,0.3-0.6,0.5-0.9c0-0.1,0.1-0.1,0.1-0.2c0.2-0.3,0.3-0.6,0.5-0.9c0-0.1,0.1-0.1,0.1-0.2c0.3-0.7,0.7-1.5,1-2.3h0
	c0.5-1.2,0.9-2.4,1.2-3.7c3.9-14.6-3.8-24.7-26.8-24.7c-15.6,0-30.5,1-30.5,1L250.7,90.2L250.7,90.2z M286.5,66.3l-1.1-3.5h23.9
	l0.5,1.2l1.5,4H287L286.5,66.3z M313.3,73.2l2,5.2h-25l-1.7-5.2H313.3z M324.3,42.7c-0.4,1.6-0.9,3.1-1.5,4.4h-22.1
	c0.7-0.9,1.2-2,1.5-3.1c0.2-0.7,0.3-1.4,0.3-2.1h22C324.4,42.2,324.4,42.4,324.3,42.7z M269.1,31.5h55.2c0.6,1.6,0.9,3.3,0.9,5.2
	h-25.4c-1.3-0.9-3-1.5-4.9-1.5h-3.1h-2l-0.4,1.5h-21.7L269.1,31.5z M289.4,47.1l1.4-5.2h0l1.1-4h3.1c3,0,4.9,1.7,4.9,4h0
	c0,0.5,0,1-0.2,1.5c-0.4,1.5-1.4,2.9-2.8,3.9c0,0,0,0,0,0c-1.4,1-3.1,1.6-4.9,1.6h-3.1L289.4,47.1L289.4,47.1z M266.3,41.9H288
	l-1.4,5.2h-21.7L266.3,41.9z M263.5,52.3H320c-1.5,2.2-3.1,3.9-4.5,5.2h-53.3L263.5,52.3z M260.8,62.8h21.7l-1,3.6l-0.4,1.6h-21.7
	L260.8,62.8z M258,73.2h21.7l-1.4,5.2h-21.7L258,73.2z M530.9,60.3c-0.1,0.8-0.2,1.6-0.2,2.4c0,0,0,0.1,0,0.1h0
	c-0.1,1.8,0,3.5,0.1,5.2h0c0.2,1.6,0.5,3.2,0.9,4.6c0,0,0,0,0,0c0.1,0.2,0.1,0.4,0.2,0.5h0c0.6,1.8,1.3,3.6,2.3,5.2h0
	c4.8,8.2,14.1,13.4,26.5,13.4c20.9,0,33.5-12.1,33.5-12.1l0.3-1.3h0l1.4-5.2h0l1.4-5.2h0l1.4-5.2h0l1.4-5.2h0l0.7-2.6h-25L572.5,67
	c0,0-1,0-2.1,0c-4.5,0-7.7-1.9-9.1-5.1c0,0,0-0.1,0-0.1c-0.1-0.3-0.2-0.5-0.3-0.8c0-0.1-0.1-0.2-0.1-0.3c-0.1-0.2-0.1-0.5-0.2-0.8
	c0-0.1,0-0.3-0.1-0.5c0-0.2-0.1-0.5-0.1-0.8c0-0.2,0-0.4,0-0.6c0-1,0.2-2.1,0.5-3.2c0.2-0.9,0.6-1.8,1-2.6h0c0.9-2,2.3-3.8,3.9-5.2
	h0c2.9-2.6,6.8-4.2,10.9-4.2c5,0,8.8,2.6,10.7,4.2h-0.1c0.9,0.8,1.4,1.3,1.4,1.3l1.2-1.3h0l4.8-5.2h0l4.8-5.2h0l4.8-5.2h0l2-2.2
	c0,0,0,0,0,0l0,0c0,0-6.4-11.1-26.2-11.1c-21.9,0-42.9,16.1-48.4,36.8c-0.2,0.9-0.4,1.7-0.6,2.6h0c0,0,0,0,0,0.1
	c-0.2,0.8-0.3,1.6-0.4,2.4C531,60.1,530.9,60.2,530.9,60.3z M575,67.7l1.3-5H596l-1.4,5.2H575L575,67.7z M593.2,73.2l-1.3,5
	c-0.1,0.1-0.2,0.1-0.2,0.2h-54.3c-1.1-1.6-2-3.4-2.6-5.2H593.2z M588.8,44.7c-1.1-0.9-2.7-2-4.6-2.8h7.2L588.8,44.7z M551,31.5H601
	l-4.8,5.2h-51C547,34.8,548.9,33.1,551,31.5z M541,41.9h28.2c-2.7,1.2-5,3-6.9,5.2h-24.5C538.8,45.3,539.8,43.6,541,41.9z
	 M534.5,55.6c0.3-1.1,0.7-2.2,1-3.3h23.8c-0.2,0.6-0.5,1.3-0.7,2c-0.3,1.1-0.5,2.2-0.5,3.3H534C534.2,56.9,534.3,56.3,534.5,55.6z
	 M533.3,62.8h25.6c0.4,0.9,0.8,1.7,1.4,2.5c0.9,1.1,1.9,2,3.2,2.7h-30C533.3,66.3,533.2,64.5,533.3,62.8z M1009.4,48.4
	c0,0.3,0.1,0.6,0.1,0.9c0,0.2,0,0.4,0.1,0.5c0.2,0.9,0.4,1.7,0.8,2.5h0c0.9,2.1,2.2,3.8,3.7,5.2h0c2.5,2.3,5.6,3.9,8.5,5.2h0.1
	c4.7,2.1,8.7,3.3,8.3,5.2h0c0,0,0,0.1,0,0.1c-0.4,1.5-2.4,3-5,3c-10.4,0-16-6.5-16-6.5l-14,15.1c0,0,0,0,0,0l0,0
	c0,0,6.1,12.1,29.1,12.1c13.2,0,24.4-5.8,30.7-13.4h0c1.4-1.7,2.6-3.4,3.5-5.2h0c0.1-0.3,0.3-0.6,0.4-0.9c0,0,0,0,0,0
	c0.5-1.1,0.9-2.1,1.2-3.2c0,0,0,0,0,0c0,0,0,0,0,0c5.9-22.1-22.1-22.2-20.9-27.2c0.4-1.5,2.4-3,5-3c3.9,0,7,1.6,9.1,3h0.1
	c1.8,1.3,2.9,2.5,2.9,2.5l2.3-2.5h0l4.8-5.2h0l4.8-5.2h0l2-2.2c0,0,0,0,0,0l0,0c0,0-6.4-11.1-25.2-11.1c-18.2,0-32.7,11.1-35.8,22.7
	c0,0,0,0,0,0c0,0,0,0,0,0c-0.1,0.3-0.2,0.7-0.2,1h0c-0.4,1.9-0.6,3.6-0.6,5.2h0c0,0.1,0,0.3,0,0.4
	C1009.4,47.8,1009.4,48.1,1009.4,48.4z M1052.3,78.4h-51.6l4.8-5.2h15.3c1.6,0.3,3.3,0.5,5.1,0.5c1,0,2-0.2,2.9-0.5h27.5
	C1055.3,75,1054,76.7,1052.3,78.4z M1058.5,68h-24.9c0.2-2.4-1.7-3.9-4.4-5.2h29.9C1059.2,64.3,1059,66,1058.5,68z M1057.8,57.5
	h-39.4c-2.2-1.4-4-3.1-5.1-5.2h39.3C1054.8,53.8,1056.6,55.4,1057.8,57.5z M1018.8,31.5h46.7l-4.8,5.2H1049
	c-1.2-0.3-2.5-0.4-3.9-0.4c-1,0-1.9,0.2-2.8,0.4h-27.6C1015.8,34.9,1017.1,33.1,1018.8,31.5z M1012.6,41.9h24.9
	c-0.3,2.4,1.7,3.9,4.3,5.2h-29.8C1011.9,45.6,1012.1,43.8,1012.6,41.9z M388.8,90.2l3.2-11.9h0l1.4-5.2h0l1.4-5.2h0L395,67h-28.1
	l1.1-4.3h0l1.4-5.2h0l1.4-5.2h0l1.4-5.2h0l1.4-5.2h0l1.4-5.2h0l1.4-5.2h0l3.1-11.7h0l0,0h-27.1l-18.9,70.5h0l0,0H388.8z M352,31.5
	h21.7l-1.4,5.2h-21.7L352,31.5z M349.2,41.9h21.7l-1.4,5.2h-21.7L349.2,41.9z M346.4,52.3h21.7l-1.4,5.2H345L346.4,52.3z
	 M343.6,62.8h21.7l-1,3.6L364,68h-21.7L343.6,62.8z M340.8,73.2h49.9l-1.4,5.2h-49.9L340.8,73.2z M49,40.9C49,40.9,49,40.9,49,40.9
	C48.9,40.9,48.9,40.9,49,40.9c-0.1,0.4-0.2,0.7-0.2,1h0c-0.4,1.9-0.6,3.6-0.6,5.2h0c0,0.1,0,0.3,0,0.4c0,0.3,0,0.6,0.1,0.9
	c0,0.3,0.1,0.6,0.1,0.9c0,0.2,0,0.4,0.1,0.5c0.2,0.9,0.4,1.7,0.8,2.5h0c0.9,2.1,2.2,3.8,3.7,5.2h0c2.5,2.3,5.6,3.9,8.5,5.2h0.1
	c4.7,2.1,8.7,3.3,8.3,5.2h0c0,0,0,0.1,0,0.1c-0.4,1.5-2.4,3-5,3c-10.4,0-16-6.5-16-6.5l-14,15.1c0,0,0,0,0,0l0,0
	c0,0,6.1,12.1,29.1,12.1c13.2,0,24.4-5.8,30.7-13.4h0c1.4-1.7,2.6-3.4,3.5-5.2h0c0.7-1.3,1.2-2.7,1.6-4.1c0-0.1,0.1-0.2,0.1-0.4
	c5.6-21.8-22.2-21.9-20.9-26.9c0.4-1.5,2.4-3,5-3c3.9,0,7,1.6,9.1,3h0.1c1.8,1.3,2.9,2.5,2.9,2.5l2.3-2.5h0l4.8-5.2h0l4.8-5.2h0
	l2-2.2c0,0,0,0,0,0l0,0c0,0-6.4-11.1-25.2-11.1C66.5,18.2,52.1,29.3,49,40.9z M91.2,78.4H39.6l4.8-5.2h15.3c1.6,0.3,3.3,0.5,5.1,0.5
	c1,0,2-0.2,2.9-0.5h27.5C94.2,75,92.8,76.7,91.2,78.4z M97.4,68H72.5c0.2-2.4-1.7-3.9-4.4-5.2H98C98,64.3,97.9,66,97.4,68z
	 M96.6,57.5H57.2c-2.2-1.4-4-3.1-5.1-5.2h39.3C93.7,53.8,95.5,55.4,96.6,57.5z M80.6,47.1H50.7c0-1.6,0.2-3.3,0.6-5.2h24.9
	C76,44.3,77.9,45.8,80.6,47.1z M104.3,31.5l-4.8,5.2H87.8c-1.2-0.3-2.5-0.4-3.9-0.4c-1,0-1.9,0.2-2.8,0.4H53.5
	c1.1-1.8,2.4-3.6,4.1-5.2H104.3z M924.1,90.2L924.1,90.2l58.4,0l3.2-11.9h0l1.4-5.2h0l0.8-3.1h0l0,0h-31.3l0.6-2.1h0l0.8-2.9H985
	l0.6-2.3h0l1.4-5.2h0l1.4-5.2h0l1.4-5.2h0l0.6-2.2h-27.1l0.8-3h0l0.5-2h29.2l0.9-3.2h0l1.4-5.2h0l3.1-11.7h0l0,0H943L924.1,90.2
	L924.1,90.2z M942.5,31.5h50.9l-1.4,5.2h-50.9L942.5,31.5z M939.7,41.9h21.7l-0.6,2.3l-0.8,2.9h-21.7L939.7,41.9z M936.9,52.3h48.8
	l-1.4,5.2h-48.8L936.9,52.3z M934.1,62.8h21.7l-0.4,1.6l-1,3.6h-21.7L934.1,62.8z M931.3,73.2h53l-1.4,5.2h-53L931.3,73.2z
	 M124.4,90.2L124.4,90.2L124.4,90.2l27.1,0l3.2-11.9h0l1.4-5.2h0l1.4-5.2h0l1.4-5.2h0l1.4-5.2h0l1.4-5.2h0l1.4-5.2h0l1.1-4.2H184
	l0.3-1h0l1.4-5.2h0l1.4-5.2h0l3.1-11.7h0l0,0h-66.7l-6.2,23.2h19.8L124.4,90.2z M152,78.4h-21.7l1.4-5.2h21.7L152,78.4z M154.8,68
	H133l1.4-5.2h21.7L154.8,68z M157.6,57.5h-21.7l1.4-5.2h21.7L157.6,57.5z M161.7,42.2l-1.3,4.9h-21.7l1-3.6l0.4-1.6h21.7L161.7,42.2
	z M121.6,36.7l1.4-5.2h61.3l-1.4,5.2H121.6z M437.2,90.2L437.2,90.2l27.1,0l3.2-11.9h0l1.4-5.2h0l1.4-5.2h0l1.4-5.2h0l1-3.7l1.1,3.7
	h0l1.6,5.2h0l1.6,5.2h0l1.6,5.2h0l3.6,11.9h30.2l3.2-11.9h0l1.4-5.2h0l1.4-5.2h0l1.4-5.2h0l1.4-5.2h0l1.4-5.2h0l1.4-5.2h0l1.4-5.2h0
	l1.4-5.2h0l1.4-5.2h0l3.1-11.7h0l0,0h-27.1l-8.4,31.2l-9.4-31.2h-30.2L437.2,90.2L437.2,90.2z M512.8,78.4h-31.5l-1.6-5.2h34.5
	L512.8,78.4z M503.6,31.5h21.7l-1.4,5.2h-21.7L503.6,31.5z M500.8,41.9h21.7l-1.4,5.2h-21.7L500.8,41.9z M498,52.3h21.7l-1.4,5.2
	h-21.7L498,52.3z M516.9,62.8l-1.4,5.2h-37.4l-1.6-5.2H516.9z M495,57.5h-20l-1.6-5.2h20L495,57.5z M455.7,31.5h31.5l1.6,5.2h-34.5
	L455.7,31.5z M452.9,41.9h37.4l1.6,5.2h-40.4L452.9,41.9z M450.1,52.3h21.7l-1.4,5.2h-21.7L450.1,52.3z M447.3,62.8H469l-1.4,5.2
	h-21.7L447.3,62.8z M444.5,73.2h21.7l-1.4,5.2h-21.7L444.5,73.2z"/>
</svg>
