<svg xmlns="http://www.w3.org/2000/svg" viewBox="0 0 150 110"><style><![CDATA[.A{fill:#EE712B}]]></style><path class="A" d="M0 110l3.5-13.1 16.9-63.1C25.5 14.8 44.4 0 63.5 0H150l-20.4 76.2c-5.1 18.9-24 33.8-43.1 33.8H0zM63.5 5.2c-16.8 0-33.5 13.2-38 29.9L6.8 104.8h79.7c16.9 0 33.6-13.1 38.1-29.9l18.7-69.6H63.5zM38.6 66.8c0 .2-.1.3-.3.3s-.3-.1-.3-.3l-.5-4.1.5-4.2c0-.2.1-.3.3-.3s.3.1.3.3l.7 4.2-.7 4.1zm2.8 2.4c0 .2-.2.3-.3.3-.2 0-.3-.1-.3-.3l-.7-6.6.7-6.7c0-.2.2-.3.3-.3.2 0 .3.1.3.3l.8 6.7-.8 6.6zm3 1.2c0 .2-.2.4-.4.4s-.4-.2-.4-.4l-.6-7.7.7-8c0-.2.2-.4.4-.4s.4.2.4.4l.8 8-.9 7.7zm3.1.2c0 .2-.2.4-.4.4s-.4-.2-.4-.4l-.7-7.9.7-8.2c0-.2.2-.4.4-.4s.4.2.4.4l.7 8.2-.7 7.9zm3 .1a.47.47 0 0 1-.5.5.47.47 0 0 1-.5-.5l-.6-8 .6-7.6a.47.47 0 0 1 .5-.5.47.47 0 0 1 .5.5l.7 7.6-.7 8zm3.1 0a.65.65 0 0 1-.6.6c-.3 0-.6-.2-.6-.6l-.6-8 .6-12.4a.65.65 0 0 1 .6-.6c.3 0 .6.2.6.6l.7 12.4-.7 8zm3.1 0a.65.65 0 0 1-.6.6.65.65 0 0 1-.6-.6l-.5-8 .5-15.2a.65.65 0 0 1 .6-.6.65.65 0 0 1 .6.6l.6 15.2-.6 8zm3.2-.2a.68.68 0 1 1-1.4 0l-.5-7.8.5-16.5a.68.68 0 1 1 1.4 0l.6 16.5-.6 7.8zm3.1 0c0 .4-.3.8-.8.8-.4 0-.7-.3-.8-.8l-.4-7.8.5-17.1c0-.4.3-.8.8-.8.4 0 .7.3.8.8l.5 17.1-.6 7.8zm3.2-.1c0 .5-.4.8-.8.8s-.8-.4-.8-.8l-.4-7.8.3-16.6c0-.5.4-.8.8-.8.5 0 .8.4.8.8l.5 16.6-.4 7.8zm3.2 0c0 .5-.4.9-.9.9s-.9-.4-.9-.9l-.4-7.7.4-16c0-.5.4-.9.9-.9s.9.4.9.9l.4 16-.4 7.7zm3.3-.8v.8c0 .3-.1.5-.3.7s-.4.3-.7.3-.6-.1-.7-.3-.2-.4-.2-.6l-.4-7.7.4-19.1c0-.3.2-.6.4-.8.1-.1.3-.2.5-.2s.4.1.5.2c.3.2.4.5.4.8l.4 19-.3 6.9zm3.1.6a1.08 1.08 0 0 1-1 1c-.6 0-1-.5-1-1l-.2-3.7-.2-3.8.4-20.7v-.1c0-.3.1-.6.4-.8.2-.1.4-.2.6-.2s.4.1.5.1c.3.2.5.5.5.9l.4 20.8-.4 7.5zm27.5 1H77.7c-.6-.1-1-.5-1-1.1V40.9c0-.5.2-.8.9-1.1a16.29 16.29 0 0 1 5.9-1.1c8.5 0 15.5 6.5 16.2 14.8 1.1-.5 2.3-.7 3.6-.7 5.1 0 9.2 4.1 9.2 9.2 0 5.2-4.1 9.2-9.2 9.2zm0 0"/></svg>