<?xml version="1.0" encoding="utf-8"?>
<!-- Generator: Adobe Illustrator 19.0.0, SVG Export Plug-In . SVG Version: 6.00 Build 0)  -->
<svg version="1.1" id="Layer_1" xmlns="http://www.w3.org/2000/svg" xmlns:xlink="http://www.w3.org/1999/xlink" x="0px" y="0px"
	 viewBox="0 0 150 110" style="enable-background:new 0 0 150 110;" xml:space="preserve">
<style type="text/css">
	.st0{fill:#EE712B;}
</style>
<g id="XMLID_1_">
	<path id="XMLID_63_" class="st0" d="M0,110l3.5-13.1l16.9-63.1C25.5,14.8,44.4,0,63.5,0H150l-3.5,13.1l-16.9,63.1
		c-5.1,18.9-24,33.8-43.1,33.8H0z M63.5,5.2C46.7,5.2,30,18.4,25.5,35.1L6.8,104.8h79.7c16.9,0,33.6-13.1,38.1-29.9l18.7-69.6H63.5z
		"/>
	<path id="XMLID_176_" class="st0" d="M35.7,67.7c0,0.2-0.2,0.3-0.3,0.3c-0.2,0-0.3-0.1-0.3-0.3l-0.6-4.4l0.6-4.5
		c0-0.2,0.2-0.3,0.3-0.3c0.2,0,0.3,0.1,0.3,0.3l0.7,4.5L35.7,67.7z M38.7,70.4c0,0.2-0.2,0.3-0.3,0.3c-0.2,0-0.3-0.1-0.3-0.3
		l-0.8-7.1L38,56c0-0.2,0.2-0.3,0.3-0.3c0.2,0,0.3,0.1,0.3,0.3l0.9,7.3L38.7,70.4z M41.9,71.6c0,0.2-0.2,0.4-0.4,0.4
		c-0.2,0-0.4-0.2-0.4-0.4l-0.8-8.3l0.8-8.6c0-0.2,0.2-0.4,0.4-0.4c0.2,0,0.4,0.2,0.4,0.4l0.9,8.6L41.9,71.6z M45.2,71.9
		c0,0.3-0.2,0.5-0.5,0.5c-0.3,0-0.5-0.2-0.5-0.5l-0.7-8.6l0.7-8.9c0-0.3,0.2-0.5,0.5-0.5c0.2,0,0.5,0.2,0.5,0.5l0.8,8.9L45.2,71.9z
		 M48.5,71.9c0,0.3-0.3,0.5-0.5,0.5c-0.3,0-0.5-0.2-0.5-0.5l-0.7-8.7l0.7-8.2c0-0.3,0.3-0.5,0.5-0.5c0.3,0,0.5,0.2,0.5,0.5l0.8,8.2
		L48.5,71.9z M51.9,72L51.9,72c0,0.3-0.3,0.6-0.6,0.6c-0.3,0-0.6-0.3-0.6-0.6L50,63.3l0.6-13.4c0-0.3,0.3-0.6,0.6-0.6
		c0.3,0,0.6,0.3,0.6,0.6l0.7,13.4L51.9,72z M55.2,71.9L55.2,71.9c0,0.4-0.3,0.7-0.7,0.7c-0.4,0-0.7-0.3-0.7-0.7l-0.6-8.6l0.6-16.5
		c0-0.4,0.3-0.7,0.7-0.7c0.4,0,0.7,0.3,0.7,0.7l0.7,16.5L55.2,71.9z M58.6,71.8L58.6,71.8c0,0.4-0.3,0.7-0.8,0.7
		c-0.4,0-0.7-0.3-0.8-0.7l-0.6-8.5c0,0,0.6-17.8,0.6-17.9c0-0.4,0.3-0.7,0.8-0.7c0.4,0,0.7,0.3,0.8,0.7l0.6,17.9L58.6,71.8z
		 M62,71.8c0,0.5-0.4,0.8-0.8,0.8c-0.4,0-0.8-0.4-0.8-0.8l-0.5-8.5l0.5-18.4c0-0.5,0.4-0.8,0.8-0.8c0.4,0,0.8,0.4,0.8,0.8l0.6,18.4
		L62,71.8z M65.5,71.7L65.5,71.7c0,0.5-0.4,0.9-0.9,0.9c-0.5,0-0.9-0.4-0.9-0.9l-0.5-8.4l0.5-18c0-0.5,0.4-0.9,0.9-0.9
		c0.5,0,0.9,0.4,0.9,0.9l0.5,18L65.5,71.7z M68.9,71.6L68.9,71.6c0,0.5-0.4,0.9-1,0.9c-0.5,0-0.9-0.4-1-0.9l-0.4-8.3L67,46
		c0-0.5,0.4-1,1-1c0.5,0,1,0.4,1,1l0.5,17.3L68.9,71.6z M72.5,70.8l0,0.8c0,0.3-0.1,0.5-0.3,0.7c-0.2,0.2-0.4,0.3-0.7,0.3
		c-0.3,0-0.6-0.1-0.8-0.4c-0.1-0.2-0.2-0.4-0.2-0.6c0,0,0,0,0,0c0,0-0.4-8.3-0.4-8.3l0.4-20.4l0-0.2c0-0.4,0.2-0.7,0.5-0.9
		c0.2-0.1,0.3-0.2,0.6-0.2c0.2,0,0.4,0.1,0.6,0.2c0.3,0.2,0.5,0.5,0.5,0.9l0.4,20.6L72.5,70.8z M75.9,71.5L75.9,71.5
		c0,0.6-0.5,1.1-1.1,1.1c-0.6,0-1.1-0.5-1.1-1.1l-0.2-4l-0.2-4.1l0.4-22.4v-0.1c0-0.3,0.2-0.6,0.4-0.8c0.2-0.2,0.4-0.2,0.7-0.2
		c0.2,0,0.4,0.1,0.6,0.2c0.3,0.2,0.5,0.5,0.5,0.9l0.5,22.5L75.9,71.5z M105.6,72.6c0,0-27.6,0-27.7,0c-0.6-0.1-1.1-0.5-1.1-1.1V39.7
		c0-0.6,0.2-0.9,1-1.2c1.9-0.8,4.1-1.2,6.4-1.2c9.2,0,16.7,7.1,17.5,16c1.2-0.5,2.5-0.8,3.9-0.8c5.5,0,10,4.5,10,10
		C115.6,68.1,111.1,72.6,105.6,72.6L105.6,72.6z M105.6,72.6"/>
</g>
</svg>
