<?xml version="1.0" encoding="utf-8"?>
<!-- Generator: Adobe Illustrator 19.0.0, SVG Export Plug-In . SVG Version: 6.00 Build 0)  -->
<svg version="1.1" id="Layer_1" xmlns="http://www.w3.org/2000/svg" xmlns:xlink="http://www.w3.org/1999/xlink" x="0px" y="0px"
	 viewBox="0 0 160 120" style="enable-background:new 0 0 160 120;" xml:space="preserve">
<style type="text/css">
	.st0{fill:#EE712B;}
	.st1{fill:none;}
	.st2{fill:#FFFFFF;}
	.st3{display:none;}
	.st4{display:inline;fill:#65469B;}
	.st5{display:inline;fill:none;}
	.st6{display:inline;fill:#FFFFFF;}
	.st7{display:inline;fill:#008166;}
	.st8{display:inline;fill:#2C4762;}
	.st9{display:inline;fill:#E32E28;}
	.st10{display:inline;fill-rule:evenodd;clip-rule:evenodd;fill:#FFFFFF;}
	.st11{display:inline;fill:#329CC2;}
	.st12{display:inline;fill:#314A7E;}
	.st13{display:inline;fill:#EE712B;}
	.st14{display:inline;fill-rule:evenodd;clip-rule:evenodd;fill:#E32E28;}
</style>
<g id="XMLID_21_">
	<path id="XMLID_157_" class="st0" d="M68.7,5C50.3,5,32.2,19.1,27.3,37.3L9.9,102.3L6.5,115h84.8c18.3,0,36.5-14.4,41.4-32.5
		l17.4-64.9L153.5,5H68.7z"/>
	<path id="XMLID_78_" class="st1" d="M68.7,0c-10,0-20.3,3.6-28.9,10.4c-8.5,6.7-14.6,15.7-17.3,25.5L5.1,101L0,120h91.3
		c10,0,20.3-3.9,28.9-10.7c8.5-6.7,14.6-15.9,17.3-25.6l17.4-64.9L160,0H68.7z M150.1,17.5l-17.4,65.1c-4.9,18.2-23,32.5-41.4,32.5
		H6.5l3.4-12.7l17.4-64.9C32.2,19.2,50.3,5,68.7,5h84.8L150.1,17.5z"/>
	<path id="XMLID_35_" class="st2" d="M68.7,5C50.3,5,32.2,19.1,27.3,37.3L9.9,102.3L6.5,115h84.8c18.3,0,36.5-14.4,41.4-32.5
		l17.4-64.9L153.5,5H68.7z M127.9,81.3c-4.3,16.1-20.4,28.7-36.5,28.7H13l19.1-71.3C36.4,22.6,52.5,10,68.7,10H147L127.9,81.3z"/>
	<path id="XMLID_195_" class="st2" d="M40.7,72.7c0,0.2-0.2,0.3-0.3,0.3c-0.2,0-0.3-0.1-0.3-0.3l-0.6-4.4l0.6-4.5
		c0-0.2,0.2-0.3,0.3-0.3c0.2,0,0.3,0.1,0.3,0.3l0.7,4.5L40.7,72.7z M43.7,75.4c0,0.2-0.2,0.3-0.3,0.3c-0.2,0-0.3-0.1-0.3-0.3
		l-0.8-7.1L43,61c0-0.2,0.2-0.3,0.3-0.3c0.2,0,0.3,0.1,0.3,0.3l0.9,7.3L43.7,75.4z M46.9,76.6c0,0.2-0.2,0.4-0.4,0.4
		c-0.2,0-0.4-0.2-0.4-0.4l-0.8-8.3l0.8-8.6c0-0.2,0.2-0.4,0.4-0.4c0.2,0,0.4,0.2,0.4,0.4l0.9,8.6L46.9,76.6z M50.2,76.9
		c0,0.3-0.2,0.5-0.5,0.5c-0.3,0-0.5-0.2-0.5-0.5l-0.7-8.6l0.7-8.9c0-0.3,0.2-0.5,0.5-0.5c0.2,0,0.5,0.2,0.5,0.5l0.8,8.9L50.2,76.9z
		 M53.5,76.9c0,0.3-0.3,0.5-0.5,0.5c-0.3,0-0.5-0.2-0.5-0.5l-0.7-8.7l0.7-8.2c0-0.3,0.3-0.5,0.5-0.5c0.3,0,0.5,0.2,0.5,0.5l0.8,8.2
		L53.5,76.9z M56.9,77L56.9,77c0,0.3-0.3,0.6-0.6,0.6c-0.3,0-0.6-0.3-0.6-0.6L55,68.3l0.6-13.4c0-0.3,0.3-0.6,0.6-0.6
		c0.3,0,0.6,0.3,0.6,0.6l0.7,13.4L56.9,77z M60.2,76.9L60.2,76.9c0,0.4-0.3,0.7-0.7,0.7c-0.4,0-0.7-0.3-0.7-0.7l-0.6-8.6l0.6-16.5
		c0-0.4,0.3-0.7,0.7-0.7c0.4,0,0.7,0.3,0.7,0.7l0.7,16.5L60.2,76.9z M63.6,76.8L63.6,76.8c0,0.4-0.3,0.7-0.8,0.7
		c-0.4,0-0.7-0.3-0.8-0.7l-0.6-8.5c0,0,0.6-17.8,0.6-17.9c0-0.4,0.3-0.7,0.8-0.7c0.4,0,0.7,0.3,0.8,0.7l0.6,17.9L63.6,76.8z
		 M67,76.8c0,0.5-0.4,0.8-0.8,0.8c-0.4,0-0.8-0.4-0.8-0.8l-0.5-8.5l0.5-18.4c0-0.5,0.4-0.8,0.8-0.8c0.4,0,0.8,0.4,0.8,0.8l0.6,18.4
		L67,76.8z M70.5,76.7L70.5,76.7c0,0.5-0.4,0.9-0.9,0.9c-0.5,0-0.9-0.4-0.9-0.9l-0.5-8.4l0.5-18c0-0.5,0.4-0.9,0.9-0.9
		c0.5,0,0.9,0.4,0.9,0.9l0.5,18L70.5,76.7z M73.9,76.6L73.9,76.6c0,0.5-0.4,0.9-1,0.9c-0.5,0-0.9-0.4-1-0.9l-0.4-8.3L72,51
		c0-0.5,0.4-1,1-1c0.5,0,1,0.4,1,1l0.5,17.3L73.9,76.6z M77.5,75.8l0,0.8c0,0.3-0.1,0.5-0.3,0.7c-0.2,0.2-0.4,0.3-0.7,0.3
		c-0.3,0-0.6-0.1-0.8-0.4c-0.1-0.2-0.2-0.4-0.2-0.6c0,0,0,0,0,0c0,0-0.4-8.3-0.4-8.3l0.4-20.4l0-0.2c0-0.4,0.2-0.7,0.5-0.9
		c0.2-0.1,0.3-0.2,0.6-0.2c0.2,0,0.4,0.1,0.6,0.2c0.3,0.2,0.5,0.5,0.5,0.9l0.4,20.6L77.5,75.8z M80.9,76.5L80.9,76.5
		c0,0.6-0.5,1.1-1.1,1.1c-0.6,0-1.1-0.5-1.1-1.1l-0.2-4l-0.2-4.1l0.4-22.4v-0.1c0-0.3,0.2-0.6,0.4-0.8c0.2-0.2,0.4-0.2,0.7-0.2
		c0.2,0,0.4,0.1,0.6,0.2c0.3,0.2,0.5,0.5,0.5,0.9l0.5,22.5L80.9,76.5z M110.6,77.6c0,0-27.6,0-27.7,0c-0.6-0.1-1.1-0.5-1.1-1.1V44.7
		c0-0.6,0.2-0.9,1-1.2c1.9-0.8,4.1-1.2,6.4-1.2c9.2,0,16.7,7.1,17.5,16c1.2-0.5,2.5-0.8,3.9-0.8c5.5,0,10,4.5,10,10
		C120.6,73.1,116.1,77.6,110.6,77.6L110.6,77.6z M110.6,77.6"/>
</g>
<g id="XMLID_48_" class="st3">
	<path id="XMLID_40_" class="st4" d="M68.7,5C50.3,5,32.2,19.1,27.3,37.3L9.9,102.3L6.5,115h84.8c18.3,0,36.5-14.4,41.4-32.5
		l17.4-64.9L153.5,5H68.7z"/>
	<path id="XMLID_58_" class="st5" d="M68.7,0c-10,0-20.3,3.6-28.9,10.4c-8.5,6.7-14.6,15.7-17.3,25.5L5.1,101L0,120h91.3
		c10,0,20.3-3.9,28.9-10.7c8.5-6.7,14.6-15.9,17.3-25.6l17.4-64.9L160,0H68.7z M150.1,17.5l-17.4,65.1c-4.9,18.2-23,32.5-41.4,32.5
		H6.5l3.4-12.7l17.4-64.9C32.2,19.2,50.3,5,68.7,5h84.8L150.1,17.5z"/>
	<path id="XMLID_55_" class="st6" d="M68.7,5C50.3,5,32.2,19.1,27.3,37.3L9.9,102.3L6.5,115h84.8c18.3,0,36.5-14.4,41.4-32.5
		l17.4-64.9L153.5,5H68.7z M127.9,81.3c-4.3,16.1-20.4,28.7-36.5,28.7H13l19.1-71.3C36.4,22.6,52.5,10,68.7,10H147L127.9,81.3z"/>
	<path id="XMLID_114_" class="st6" d="M94.4,83H82.6l-7.8,7.9H67V83H52.6V41.2l3.9-10.5h53.6v36.6L94.4,83z M104.9,64.8V36H61.7
		v37.9h11.8v7.8l7.8-7.8h14.4L104.9,64.8z M90.5,46.5v15.7h5.2V46.5H90.5z M76.1,62.1h5.2V46.5h-5.2V62.1z"/>
</g>
<g id="XMLID_29_" class="st3">
	<path id="XMLID_37_" class="st7" d="M68.7,5C50.3,5,32.2,19.2,27.3,37.4l-17.4,65L6.5,115h84.8c18.3,0,36.5-14.2,41.4-32.4l17.4-65
		L153.5,5H68.7z"/>
	<path id="XMLID_45_" class="st5" d="M68.7,0c-10,0-20.3,3.7-28.9,10.5c-8.5,6.7-14.6,15.8-17.3,25.6l-17.4,65L0,120h91.3
		c10,0,20.3-3.7,28.9-10.5c8.5-6.7,14.6-15.8,17.3-25.6l17.4-65L160,0H68.7z M150.1,17.6l-17.4,65c-4.9,18.2-23,32.4-41.4,32.4H6.5
		l3.4-12.6l17.4-65C32.2,19.2,50.3,5,68.7,5h84.8L150.1,17.6z"/>
	<path id="XMLID_42_" class="st6" d="M68.7,5C50.3,5,32.2,19.2,27.3,37.4l-17.4,65L6.5,115h84.8c18.3,0,36.5-14.2,41.4-32.4l17.4-65
		L153.5,5H68.7z M127.9,81.3c-4.3,16.1-20.4,28.7-36.5,28.7H13l19.1-71.3C36.4,22.6,52.5,10,68.7,10H147L127.9,81.3z"/>
	<path id="group_2_" class="st6" d="M84.9,50.5c-3-0.2-6.5,0-10.6,0.7l9.4,16.9l37.2-10.2c-0.4-1-1-1.9-1.8-2.8
		c-3.8-4.5-12.2-8.4-21.3-10.2v0c-8.9-2.1-18.6-2-28.4-0.5c-0.4,0.1-0.7,0.1-1.1,0.2L65,38.4c-3.2,0.4-6.2,1.1-9,2l3.1,6.5
		c-5.1,2-9.3,4.8-12.3,8.2c-5,5.7-7,12.8-4.6,19.8c0.5,1.4,1.1,2.7,1.9,4l37.2-10.2L71,49.6c0.4-0.1,0.7-0.1,1.1-0.2
		c16.7-3,25.8,1.6,30.8,6.5L90.2,59L84.9,50.5z M54.8,67.6c-1.1-5.2-0.2-11.1,7-15l5.7,11.9L54.8,67.6z M54.8,67.6"/>
</g>
<g id="XMLID_61_" class="st3">
	<path id="XMLID_53_" class="st8" d="M68.7,5C50.3,5,32.2,19.3,27.3,37.4l-17.4,65L6.5,115h84.8c18.3,0,36.5-14.2,41.4-32.4l17.4-65
		L153.5,5H68.7z"/>
	<path id="XMLID_71_" class="st5" d="M68.7,0c-10,0-20.3,3.8-28.9,10.6c-8.5,6.7-14.6,15.8-17.3,25.6l-17.4,65L0,120h91.3
		c10,0,20.3-3.7,28.9-10.5c8.5-6.7,14.6-15.8,17.3-25.6l17.4-65L160,0H68.7z M150.1,17.6l-17.4,65c-4.9,18.2-23,32.4-41.4,32.4H6.5
		l3.4-12.6l17.4-65C32.2,19.2,50.3,5,68.7,5h84.8L150.1,17.6z"/>
	<path id="XMLID_68_" class="st6" d="M68.7,5C50.3,5,32.2,19.3,27.3,37.4l-17.4,65L6.5,115h84.8c18.3,0,36.5-14.2,41.4-32.4l17.4-65
		L153.5,5H68.7z M127.9,81.3c-4.3,16.1-20.4,28.7-36.5,28.7H13l19.1-71.3C36.4,22.6,52.5,10,68.7,10H147L127.9,81.3z"/>
	<path id="XMLID_129_" class="st6" d="M83.6,40.8V26.3h-9.4c-0.2,0.5-0.3,1.2-0.3,1.8c-0.1,0.3-0.2,0.5-0.2,0.9
		c-1,5.4-3.8,9.1-8.5,11.2c-1.4,0.6-2.7,0.7-4.1,0.6v11.7h6.9c0.1,16.5,0.1,25,0.1,25.4v1c0.9,7.2,4.6,11.5,11.3,13.1
		c2.7,0.7,5.6,1.1,8.5,1.1c3.8-0.1,7.4-0.8,11.1-1.9V77.4c-2.1,0.6-4.1,1.2-5.8,1.7c-3.3,1-6.1,0.3-8.4-1.8
		c-0.2-0.3-0.5-0.8-0.6-1.2c-0.3-1.7-0.5-3.5-0.5-5.3V52.6h14.9V40.8H83.6z M83.6,40.8"/>
</g>
<g id="XMLID_74_" class="st3">
	<path id="XMLID_50_" class="st9" d="M68.7,5C50.3,5,32.2,19.2,27.3,37.4l-17.4,65L6.5,115h84.8c18.3,0,36.5-14.2,41.4-32.4l17.4-65
		L153.5,5H68.7z"/>
	<path id="XMLID_84_" class="st5" d="M68.7,0c-10,0-20.3,3.7-28.9,10.5c-8.5,6.7-14.6,15.8-17.3,25.6l-17.4,65L0,120h91.3
		c10,0,20.3-3.7,28.9-10.5c8.5-6.7,14.6-15.8,17.3-25.6l17.4-65L160,0H68.7z M150.1,17.6l-17.4,65c-4.9,18.2-23,32.4-41.4,32.4H6.5
		l3.4-12.6l17.4-65C32.2,19.2,50.3,5,68.7,5h84.8L150.1,17.6z"/>
	<path id="XMLID_81_" class="st6" d="M68.7,5C50.3,5,32.2,19.2,27.3,37.4l-17.4,65L6.5,115h84.8c18.3,0,36.5-14.2,41.4-32.4l17.4-65
		L153.5,5H68.7z M127.9,81.3c-4.3,16.1-20.4,28.7-36.5,28.7H13l19.1-71.3C36.4,22.6,52.5,10,68.7,10H147L127.9,81.3z"/>
	<path id="XMLID_139_" class="st10" d="M112.9,46.2c0-5.4-4.4-9.8-9.8-9.8H57c-5.4,0-9.8,4.4-9.8,9.8v26.4c0,5.4,4.4,9.8,9.8,9.8
		H103c5.4,0,9.8-4.4,9.8-9.8V46.2z M73.4,70.5V45.7l18.8,12.4L73.4,70.5z M73.4,70.5"/>
</g>
<g id="XMLID_87_" class="st3">
	<path id="XMLID_66_" class="st11" d="M68.7,5C50.3,5,32.2,19,27.3,37.2L9.9,102.3L6.5,115h84.8c18.3,0,36.5-14.5,41.4-32.6
		l17.4-64.9L153.5,5H68.7z"/>
	<path id="XMLID_97_" class="st5" d="M68.7,0c-10,0-20.3,3.5-28.9,10.3C31.2,17,25.1,26,22.5,35.8L5.1,100.9L0,120h91.3
		c10,0,20.3-4,28.9-10.8c8.5-6.7,14.6-15.9,17.3-25.7l17.4-64.8L160,0H68.7z M150.1,17.4l-17.4,65.1c-4.9,18.2-23,32.5-41.4,32.5
		H6.5l3.4-12.8l17.4-64.9C32.2,19.1,50.3,5,68.7,5h84.8L150.1,17.4z"/>
	<path id="XMLID_94_" class="st6" d="M68.7,5C50.3,5,32.2,19,27.3,37.2L9.9,102.3L6.5,115h84.8c18.3,0,36.5-14.5,41.4-32.6
		l17.4-64.9L153.5,5H68.7z M127.9,81.3c-4.3,16.1-20.4,28.7-36.5,28.7H13l19.1-71.3C36.4,22.6,52.5,10,68.7,10H147L127.9,81.3z"/>
	<path id="XMLID_134_" class="st6" d="M113.9,38.2c-2.5,1.1-5.2,1.9-8,2.2c2.9-1.7,5.1-4.5,6.1-7.7c-2.7,1.6-5.7,2.8-8.8,3.4
		c-2.5-2.7-6.2-4.4-10.2-4.4c-7.7,0-13.9,6.2-13.9,13.9c0,1.1,0.1,2.2,0.4,3.2c-11.6-0.6-21.8-6.1-28.7-14.6c-1.2,2.1-1.9,4.5-1.9,7
		c0,4.8,2.5,9.1,6.2,11.6c-2.3-0.1-4.4-0.7-6.3-1.7c0,0.1,0,0.1,0,0.2c0,6.7,4.8,12.4,11.2,13.7c-1.2,0.3-2.4,0.5-3.7,0.5
		c-0.9,0-1.8-0.1-2.6-0.2c1.8,5.5,6.9,9.6,13,9.7c-4.8,3.7-10.8,6-17.3,6c-1.1,0-2.2-0.1-3.3-0.2c6.2,4,13.5,6.3,21.4,6.3
		C93,86.8,107,65.6,107,47.2c0-0.6,0-1.2,0-1.8C109.7,43.4,112.1,41,113.9,38.2L113.9,38.2z M113.9,38.2"/>
</g>
<g id="XMLID_100_" class="st3">
	<path id="XMLID_63_" class="st12" d="M68.7,5C50.3,5,32.2,19,27.3,37.2L9.9,102.3L6.5,115h84.8c18.3,0,36.5-14.5,41.4-32.6
		l17.4-64.9L153.5,5H68.7z"/>
	<path id="XMLID_110_" class="st5" d="M68.7,0c-10,0-20.3,3.5-28.9,10.3C31.2,17,25.1,26,22.5,35.8L5.1,100.9L0,120h91.3
		c10,0,20.3-4,28.9-10.8c8.5-6.7,14.6-15.9,17.3-25.7l17.4-64.8L160,0H68.7z M150.1,17.4l-17.4,65.1c-4.9,18.2-23,32.5-41.4,32.5
		H6.5l3.4-12.8l17.4-64.9C32.2,19.1,50.3,5,68.7,5h84.8L150.1,17.4z"/>
	<path id="XMLID_107_" class="st6" d="M68.7,5C50.3,5,32.2,19,27.3,37.2L9.9,102.3L6.5,115h84.8c18.3,0,36.5-14.5,41.4-32.6
		l17.4-64.9L153.5,5H68.7z M127.9,81.3c-4.3,16.1-20.4,28.7-36.5,28.7H13l19.1-71.3C36.4,22.6,52.5,10,68.7,10H147L127.9,81.3z"/>
	<path id="XMLID_144_" class="st6" d="M93.9,59.2h-9.1v32.5H71.3V59.2h-6.4V47.8h6.4v-7.4c0-5.3,2.5-13.6,13.6-13.6l10,0v11.1h-7.3
		c-1.2,0-2.9,0.6-2.9,3.1v6.8h10.3L93.9,59.2z M93.9,59.2"/>
</g>
<g id="XMLID_1_" class="st3">
	<path id="XMLID_17_" class="st5" d="M68.7,0c-10,0-20.3,3.6-28.9,10.4c-8.5,6.7-14.6,15.7-17.3,25.5L5.1,101L0,120h91.3
		c10,0,20.3-3.9,28.9-10.7c8.5-6.7,14.6-15.9,17.3-25.6l17.4-64.9L160,0H68.7z M150.1,17.5l-17.4,65.1c-4.9,18.2-23,32.5-41.4,32.5
		H6.5l3.4-12.7l17.4-64.9C32.2,19.2,50.3,5,68.7,5h84.8L150.1,17.5z"/>
	<path id="XMLID_14_" class="st13" d="M68.7,5C50.3,5,32.2,19.1,27.3,37.3L9.9,102.3L6.5,115h84.8c18.3,0,36.5-14.4,41.4-32.5
		l17.4-64.9L153.5,5H68.7z M127.9,81.3c-4.3,16.1-20.4,28.7-36.5,28.7H13l19.1-71.3C36.4,22.6,52.5,10,68.7,10H147L127.9,81.3z"/>
	<path id="XMLID_176_" class="st13" d="M40.7,72.7c0,0.2-0.2,0.3-0.3,0.3c-0.2,0-0.3-0.1-0.3-0.3l-0.6-4.4l0.6-4.5
		c0-0.2,0.2-0.3,0.3-0.3c0.2,0,0.3,0.1,0.3,0.3l0.7,4.5L40.7,72.7z M43.7,75.4c0,0.2-0.2,0.3-0.3,0.3c-0.2,0-0.3-0.1-0.3-0.3
		l-0.8-7.1L43,61c0-0.2,0.2-0.3,0.3-0.3c0.2,0,0.3,0.1,0.3,0.3l0.9,7.3L43.7,75.4z M46.9,76.6c0,0.2-0.2,0.4-0.4,0.4
		c-0.2,0-0.4-0.2-0.4-0.4l-0.8-8.3l0.8-8.6c0-0.2,0.2-0.4,0.4-0.4c0.2,0,0.4,0.2,0.4,0.4l0.9,8.6L46.9,76.6z M50.2,76.9
		c0,0.3-0.2,0.5-0.5,0.5c-0.3,0-0.5-0.2-0.5-0.5l-0.7-8.6l0.7-8.9c0-0.3,0.2-0.5,0.5-0.5c0.2,0,0.5,0.2,0.5,0.5l0.8,8.9L50.2,76.9z
		 M53.5,76.9c0,0.3-0.3,0.5-0.5,0.5c-0.3,0-0.5-0.2-0.5-0.5l-0.7-8.7l0.7-8.2c0-0.3,0.3-0.5,0.5-0.5c0.3,0,0.5,0.2,0.5,0.5l0.8,8.2
		L53.5,76.9z M56.9,77L56.9,77c0,0.3-0.3,0.6-0.6,0.6c-0.3,0-0.6-0.3-0.6-0.6L55,68.3l0.6-13.4c0-0.3,0.3-0.6,0.6-0.6
		c0.3,0,0.6,0.3,0.6,0.6l0.7,13.4L56.9,77z M60.2,76.9L60.2,76.9c0,0.4-0.3,0.7-0.7,0.7c-0.4,0-0.7-0.3-0.7-0.7l-0.6-8.6l0.6-16.5
		c0-0.4,0.3-0.7,0.7-0.7c0.4,0,0.7,0.3,0.7,0.7l0.7,16.5L60.2,76.9z M63.6,76.8L63.6,76.8c0,0.4-0.3,0.7-0.8,0.7
		c-0.4,0-0.7-0.3-0.8-0.7l-0.6-8.5c0,0,0.6-17.8,0.6-17.9c0-0.4,0.3-0.7,0.8-0.7c0.4,0,0.7,0.3,0.8,0.7l0.6,17.9L63.6,76.8z
		 M67,76.8c0,0.5-0.4,0.8-0.8,0.8c-0.4,0-0.8-0.4-0.8-0.8l-0.5-8.5l0.5-18.4c0-0.5,0.4-0.8,0.8-0.8c0.4,0,0.8,0.4,0.8,0.8l0.6,18.4
		L67,76.8z M70.5,76.7L70.5,76.7c0,0.5-0.4,0.9-0.9,0.9c-0.5,0-0.9-0.4-0.9-0.9l-0.5-8.4l0.5-18c0-0.5,0.4-0.9,0.9-0.9
		c0.5,0,0.9,0.4,0.9,0.9l0.5,18L70.5,76.7z M73.9,76.6L73.9,76.6c0,0.5-0.4,0.9-1,0.9c-0.5,0-0.9-0.4-1-0.9l-0.4-8.3L72,51
		c0-0.5,0.4-1,1-1c0.5,0,1,0.4,1,1l0.5,17.3L73.9,76.6z M77.5,75.8l0,0.8c0,0.3-0.1,0.5-0.3,0.7c-0.2,0.2-0.4,0.3-0.7,0.3
		c-0.3,0-0.6-0.1-0.8-0.4c-0.1-0.2-0.2-0.4-0.2-0.6c0,0,0,0,0,0c0,0-0.4-8.3-0.4-8.3l0.4-20.4l0-0.2c0-0.4,0.2-0.7,0.5-0.9
		c0.2-0.1,0.3-0.2,0.6-0.2c0.2,0,0.4,0.1,0.6,0.2c0.3,0.2,0.5,0.5,0.5,0.9l0.4,20.6L77.5,75.8z M80.9,76.5L80.9,76.5
		c0,0.6-0.5,1.1-1.1,1.1c-0.6,0-1.1-0.5-1.1-1.1l-0.2-4l-0.2-4.1l0.4-22.4v-0.1c0-0.3,0.2-0.6,0.4-0.8c0.2-0.2,0.4-0.2,0.7-0.2
		c0.2,0,0.4,0.1,0.6,0.2c0.3,0.2,0.5,0.5,0.5,0.9l0.5,22.5L80.9,76.5z M110.6,77.6c0,0-27.6,0-27.7,0c-0.6-0.1-1.1-0.5-1.1-1.1V44.7
		c0-0.6,0.2-0.9,1-1.2c1.9-0.8,4.1-1.2,6.4-1.2c9.2,0,16.7,7.1,17.5,16c1.2-0.5,2.5-0.8,3.9-0.8c5.5,0,10,4.5,10,10
		C120.6,73.1,116.1,77.6,110.6,77.6L110.6,77.6z M110.6,77.6"/>
</g>
<g id="XMLID_158_" class="st3">
	<path id="XMLID_171_" class="st5" d="M68.7,0c-10,0-20.3,3.6-28.9,10.4c-8.5,6.7-14.6,15.7-17.3,25.5L5.1,101L0,120h91.3
		c10,0,20.3-3.9,28.9-10.7c8.5-6.7,14.6-15.9,17.3-25.6l17.4-64.9L160,0H68.7z M150.1,17.5l-17.4,65.1c-4.9,18.2-23,32.5-41.4,32.5
		H6.5l3.4-12.7l17.4-64.9C32.2,19.2,50.3,5,68.7,5h84.8L150.1,17.5z"/>
	<path id="XMLID_168_" class="st4" d="M68.7,5C50.3,5,32.2,19.1,27.3,37.3L9.9,102.3L6.5,115h84.8c18.3,0,36.5-14.4,41.4-32.5
		l17.4-64.9L153.5,5H68.7z M127.9,81.3c-4.3,16.1-20.4,28.7-36.5,28.7H13l19.1-71.3C36.4,22.6,52.5,10,68.7,10H147L127.9,81.3z"/>
	<path id="XMLID_159_" class="st4" d="M94.4,83H82.6l-7.8,7.9H67V83H52.6V41.2l3.9-10.5h53.6v36.6L94.4,83z M104.9,64.8V36H61.7
		v37.9h11.8v7.8l7.8-7.8h14.4L104.9,64.8z M90.5,46.5v15.7h5.2V46.5H90.5z M76.1,62.1h5.2V46.5h-5.2V62.1z"/>
</g>
<g id="XMLID_147_" class="st3">
	<path id="XMLID_154_" class="st5" d="M68.7,0c-10,0-20.3,3.7-28.9,10.5c-8.5,6.7-14.6,15.8-17.3,25.6l-17.4,65L0,120h91.3
		c10,0,20.3-3.7,28.9-10.5c8.5-6.7,14.6-15.8,17.3-25.6l17.4-65L160,0H68.7z M150.1,17.6l-17.4,65c-4.9,18.2-23,32.4-41.4,32.4H6.5
		l3.4-12.6l17.4-65C32.2,19.2,50.3,5,68.7,5h84.8L150.1,17.6z"/>
	<path id="XMLID_151_" class="st7" d="M68.7,5C50.3,5,32.2,19.2,27.3,37.4l-17.4,65L6.5,115h84.8c18.3,0,36.5-14.2,41.4-32.4
		l17.4-65L153.5,5H68.7z M127.9,81.3c-4.3,16.1-20.4,28.7-36.5,28.7H13l19.1-71.3C36.4,22.6,52.5,10,68.7,10H147L127.9,81.3z"/>
	<path id="group_1_" class="st7" d="M84.9,50.5c-3-0.2-6.5,0-10.6,0.7l9.4,16.9l37.2-10.2c-0.4-1-1-1.9-1.8-2.8
		c-3.8-4.5-12.2-8.4-21.3-10.2v0c-8.9-2.1-18.6-2-28.4-0.5c-0.4,0.1-0.7,0.1-1.1,0.2L65,38.4c-3.2,0.4-6.2,1.1-9,2l3.1,6.5
		c-5.1,2-9.3,4.8-12.3,8.2c-5,5.7-7,12.8-4.6,19.8c0.5,1.4,1.1,2.7,1.9,4l37.2-10.2L71,49.6c0.4-0.1,0.7-0.1,1.1-0.2
		c16.7-3,25.8,1.6,30.8,6.5L90.2,59L84.9,50.5z M54.8,67.6c-1.1-5.2-0.2-11.1,7-15l5.7,11.9L54.8,67.6z M54.8,67.6"/>
</g>
<g id="XMLID_105_" class="st3">
	<path id="XMLID_133_" class="st5" d="M68.7,0c-10,0-20.3,3.8-28.9,10.6c-8.5,6.7-14.6,15.8-17.3,25.6l-17.4,65L0,120h91.3
		c10,0,20.3-3.7,28.9-10.5c8.5-6.7,14.6-15.8,17.3-25.6l17.4-65L160,0H68.7z M150.1,17.6l-17.4,65c-4.9,18.2-23,32.4-41.4,32.4H6.5
		l3.4-12.6l17.4-65C32.2,19.2,50.3,5,68.7,5h84.8L150.1,17.6z"/>
	<path id="XMLID_127_" class="st8" d="M68.7,5C50.3,5,32.2,19.3,27.3,37.4l-17.4,65L6.5,115h84.8c18.3,0,36.5-14.2,41.4-32.4
		l17.4-65L153.5,5H68.7z M127.9,81.3c-4.3,16.1-20.4,28.7-36.5,28.7H13l19.1-71.3C36.4,22.6,52.5,10,68.7,10H147L127.9,81.3z"/>
	<path id="XMLID_106_" class="st8" d="M83.6,40.8V26.3h-9.4c-0.2,0.5-0.3,1.2-0.3,1.8c-0.1,0.3-0.2,0.5-0.2,0.9
		c-1,5.4-3.8,9.1-8.5,11.2c-1.4,0.6-2.7,0.7-4.1,0.6v11.7h6.9c0.1,16.5,0.1,25,0.1,25.4v1c0.9,7.2,4.6,11.5,11.3,13.1
		c2.7,0.7,5.6,1.1,8.5,1.1c3.8-0.1,7.4-0.8,11.1-1.9V77.4c-2.1,0.6-4.1,1.2-5.8,1.7c-3.3,1-6.1,0.3-8.4-1.8
		c-0.2-0.3-0.5-0.8-0.6-1.2c-0.3-1.7-0.5-3.5-0.5-5.3V52.6h14.9V40.8H83.6z M83.6,40.8"/>
</g>
<g id="XMLID_79_" class="st3">
	<path id="XMLID_101_" class="st5" d="M68.7,0c-10,0-20.3,3.7-28.9,10.5c-8.5,6.7-14.6,15.8-17.3,25.6l-17.4,65L0,120h91.3
		c10,0,20.3-3.7,28.9-10.5c8.5-6.7,14.6-15.8,17.3-25.6l17.4-65L160,0H68.7z M150.1,17.6l-17.4,65c-4.9,18.2-23,32.4-41.4,32.4H6.5
		l3.4-12.6l17.4-65C32.2,19.2,50.3,5,68.7,5h84.8L150.1,17.6z"/>
	<path id="XMLID_91_" class="st9" d="M68.7,5C50.3,5,32.2,19.2,27.3,37.4l-17.4,65L6.5,115h84.8c18.3,0,36.5-14.2,41.4-32.4l17.4-65
		L153.5,5H68.7z M127.9,81.3c-4.3,16.1-20.4,28.7-36.5,28.7H13l19.1-71.3C36.4,22.6,52.5,10,68.7,10H147L127.9,81.3z"/>
	<path id="XMLID_80_" class="st14" d="M112.9,46.2c0-5.4-4.4-9.8-9.8-9.8H57c-5.4,0-9.8,4.4-9.8,9.8v26.4c0,5.4,4.4,9.8,9.8,9.8H103
		c5.4,0,9.8-4.4,9.8-9.8V46.2z M73.4,70.5V45.7l18.8,12.4L73.4,70.5z M73.4,70.5"/>
</g>
<g id="XMLID_51_" class="st3">
	<path id="XMLID_75_" class="st5" d="M68.7,0c-10,0-20.3,3.5-28.9,10.3C31.2,17,25.1,26,22.5,35.8L5.1,100.9L0,120h91.3
		c10,0,20.3-4,28.9-10.8c8.5-6.7,14.6-15.9,17.3-25.7l17.4-64.8L160,0H68.7z M150.1,17.4l-17.4,65.1c-4.9,18.2-23,32.5-41.4,32.5
		H6.5l3.4-12.8l17.4-64.9C32.2,19.1,50.3,5,68.7,5h84.8L150.1,17.4z"/>
	<path id="XMLID_64_" class="st11" d="M68.7,5C50.3,5,32.2,19,27.3,37.2L9.9,102.3L6.5,115h84.8c18.3,0,36.5-14.5,41.4-32.6
		l17.4-64.9L153.5,5H68.7z M127.9,81.3c-4.3,16.1-20.4,28.7-36.5,28.7H13l19.1-71.3C36.4,22.6,52.5,10,68.7,10H147L127.9,81.3z"/>
	<path id="XMLID_52_" class="st11" d="M113.9,38.2c-2.5,1.1-5.2,1.9-8,2.2c2.9-1.7,5.1-4.5,6.1-7.7c-2.7,1.6-5.7,2.8-8.8,3.4
		c-2.5-2.7-6.2-4.4-10.2-4.4c-7.7,0-13.9,6.2-13.9,13.9c0,1.1,0.1,2.2,0.4,3.2c-11.6-0.6-21.8-6.1-28.7-14.6c-1.2,2.1-1.9,4.5-1.9,7
		c0,4.8,2.5,9.1,6.2,11.6c-2.3-0.1-4.4-0.7-6.3-1.7c0,0.1,0,0.1,0,0.2c0,6.7,4.8,12.4,11.2,13.7c-1.2,0.3-2.4,0.5-3.7,0.5
		c-0.9,0-1.8-0.1-2.6-0.2c1.8,5.5,6.9,9.6,13,9.7c-4.8,3.7-10.8,6-17.3,6c-1.1,0-2.2-0.1-3.3-0.2c6.2,4,13.5,6.3,21.4,6.3
		C93,86.8,107,65.6,107,47.2c0-0.6,0-1.2,0-1.8C109.7,43.4,112.1,41,113.9,38.2L113.9,38.2z M113.9,38.2"/>
</g>
<g id="XMLID_4_" class="st3">
	<path id="XMLID_38_" class="st5" d="M68.7,0c-10,0-20.3,3.5-28.9,10.3C31.2,17,25.1,26,22.5,35.8L5.1,100.9L0,120h91.3
		c10,0,20.3-4,28.9-10.8c8.5-6.7,14.6-15.9,17.3-25.7l17.4-64.8L160,0H68.7z M150.1,17.4l-17.4,65.1c-4.9,18.2-23,32.5-41.4,32.5
		H6.5l3.4-12.8l17.4-64.9C32.2,19.1,50.3,5,68.7,5h84.8L150.1,17.4z"/>
	<path id="XMLID_23_" class="st12" d="M68.7,5C50.3,5,32.2,19,27.3,37.2L9.9,102.3L6.5,115h84.8c18.3,0,36.5-14.5,41.4-32.6
		l17.4-64.9L153.5,5H68.7z M127.9,81.3c-4.3,16.1-20.4,28.7-36.5,28.7H13l19.1-71.3C36.4,22.6,52.5,10,68.7,10H147L127.9,81.3z"/>
	<path id="XMLID_5_" class="st12" d="M93.9,59.2h-9.1v32.5H71.3V59.2h-6.4V47.8h6.4v-7.4c0-5.3,2.5-13.6,13.6-13.6l10,0v11.1h-7.3
		c-1.2,0-2.9,0.6-2.9,3.1v6.8h10.3L93.9,59.2z M93.9,59.2"/>
</g>
</svg>
