<?xml version="1.0" encoding="utf-8"?>
<!-- Generator: Adobe Illustrator 19.0.0, SVG Export Plug-In . SVG Version: 6.00 Build 0)  -->
<svg version="1.1" id="Layer_1" xmlns="http://www.w3.org/2000/svg" xmlns:xlink="http://www.w3.org/1999/xlink" x="0px" y="0px"
	 viewBox="0 0 150 110" style="enable-background:new 0 0 150 110;" xml:space="preserve">
<style type="text/css">
	.st0{fill:#2C4762;}
</style>
<g id="XMLID_105_">
	<path id="XMLID_50_" class="st0" d="M0,110l3.5-13.1l16.9-63.1C25.5,14.8,44.4,0,63.5,0H150l-3.5,13.1l-16.9,63.1
		c-5.1,18.9-24,33.8-43.1,33.8H0z M63.5,5.2C46.7,5.2,30,18.4,25.5,35.1L6.8,104.8h79.7c16.9,0,33.6-13.1,38.1-29.9l18.7-69.6H63.5z
		"/>
	<path id="XMLID_106_" class="st0" d="M78.6,36.1V21.6h-9.4c-0.2,0.5-0.3,1.2-0.3,1.8c-0.1,0.3-0.2,0.5-0.2,0.9
		c-1,5.4-3.8,9.1-8.5,11.2c-1.4,0.6-2.7,0.7-4.1,0.6v11.7h6.9c0.1,16.5,0.1,25,0.1,25.4v1c0.9,7.2,4.6,11.5,11.3,13.1
		c2.7,0.7,5.6,1.1,8.5,1.1c3.8-0.1,7.4-0.8,11.1-1.9V72.7c-2.1,0.6-4.1,1.2-5.8,1.7c-3.3,1-6.1,0.3-8.4-1.8
		c-0.2-0.3-0.5-0.8-0.6-1.2c-0.3-1.7-0.5-3.5-0.5-5.3V47.8h14.9V36.1H78.6z M78.6,36.1"/>
</g>
</svg>
