<svg xmlns="http://www.w3.org/2000/svg" viewBox="0 0 150 110"><style><![CDATA[.E{fill:#2C4762}]]></style><path class="E" d="M0 110l3.5-13.1 16.9-63.1C25.5 14.8 44.4 0 63.5 0H150l-20.4 76.2c-5.1 18.9-24 33.8-43.1 33.8H0zM63.5 5.2c-16.8 0-33.5 13.2-38 29.9L6.8 104.8h79.7c16.9 0 33.6-13.1 38.1-29.9l18.7-69.6H63.5zm14.4 34.3v-12h-7.7c-.2.4-.3 1-.3 1.5-.1.3-.2.4-.2.7-.8 4.4-3.1 7.5-7 9.2-1.2.5-2.2.6-3.4.5V49H65l.1 21.7c.7 5.9 3.8 9.5 9.3 10.8 2.2.6 4.6.9 7 .9 3.1-.1 6.1-.6 9.1-1.6V69.6L85.7 71c-2.7.8-5 .3-6.9-1.5-.2-.3-.4-.6-.5-1-.3-1.4-.4-2.9-.4-4.3V49.1h12.3v-9.6H77.9zm0 0"/></svg>