<svg xmlns="http://www.w3.org/2000/svg" viewBox="0 0 150 110"><style><![CDATA[.C{fill:#65469B}]]></style><path class="C" d="M0 110l3.5-13.1 16.9-63.1C25.5 14.8 44.4 0 63.5 0H150l-20.4 76.2c-5.1 18.9-24 33.8-43.1 33.8H0zM63.5 5.2c-16.8 0-33.5 13.2-38 29.9L6.8 104.8h79.7c16.9 0 33.6-13.1 38.1-29.9l18.7-69.6H63.5zm24.8 70.1H77.5l-7.2 7.2h-7.2v-7.2H50V37.1l3.6-9.6h49V61L88.3 75.3zm9.6-16.7V32.3H58.4V67h10.8v7.2l7.2-7.2h13.1l8.4-8.4zM84.7 41.9v14.4h4.8V41.9h-4.8zM71.6 56.2h4.8V41.9h-4.8v14.3z"/></svg>