<?xml version="1.0" encoding="utf-8"?>
<!-- Generator: Adobe Illustrator 19.0.0, SVG Export Plug-In . SVG Version: 6.00 Build 0)  -->
<svg version="1.1" id="Layer_1" xmlns="http://www.w3.org/2000/svg" xmlns:xlink="http://www.w3.org/1999/xlink" x="0px" y="0px"
	 viewBox="0 0 150 110" style="enable-background:new 0 0 150 110;" xml:space="preserve">
<style type="text/css">
	.st0{fill:#65469B;}
</style>
<g id="XMLID_158_">
	<path id="XMLID_59_" class="st0" d="M0,110l3.5-13.1l16.9-63.1C25.5,14.8,44.4,0,63.5,0H150l-3.5,13.1l-16.9,63.1
		c-5.1,18.9-24,33.8-43.1,33.8H0z M63.5,5.2C46.7,5.2,30,18.4,25.5,35.1L6.8,104.8h79.7c16.9,0,33.6-13.1,38.1-29.9l18.7-69.6H63.5z
		"/>
	<path id="XMLID_159_" class="st0" d="M89.4,77.2H77.6l-7.8,7.9H62v-7.9H47.6V35.4l3.9-10.5h53.6v36.6L89.4,77.2z M99.9,58.9V30.2
		H56.7v37.9h11.8v7.8l7.8-7.8h14.4L99.9,58.9z M85.5,40.6v15.7h5.2V40.6H85.5z M71.1,56.3h5.2V40.6h-5.2V56.3z"/>
</g>
</svg>
