<?xml version="1.0" encoding="utf-8"?>
<!-- Generator: Adobe Illustrator 19.0.0, SVG Export Plug-In . SVG Version: 6.00 Build 0)  -->
<svg version="1.1" id="Layer_1" xmlns="http://www.w3.org/2000/svg" xmlns:xlink="http://www.w3.org/1999/xlink" x="0px" y="0px"
	 viewBox="0 0 150 110" style="enable-background:new 0 0 150 110;" xml:space="preserve">
<style type="text/css">
	.st0{fill:#329CC2;}
</style>
<g id="XMLID_51_">
	<path id="XMLID_44_" class="st0" d="M0,110l3.5-13.1l16.9-63.1C25.5,14.8,44.4,0,63.5,0H150l-3.5,13.1l-16.9,63.1
		c-5.1,18.9-24,33.8-43.1,33.8H0z M63.5,5.2C46.7,5.2,30,18.4,25.5,35.1L6.8,104.8h79.7c16.9,0,33.6-13.1,38.1-29.9l18.7-69.6H63.5z
		"/>
	<path id="XMLID_52_" class="st0" d="M108.9,33.9c-2.5,1.1-5.2,1.9-8,2.2c2.9-1.7,5.1-4.5,6.1-7.7c-2.7,1.6-5.7,2.8-8.8,3.4
		c-2.5-2.7-6.2-4.4-10.2-4.4c-7.7,0-13.9,6.2-13.9,13.9c0,1.1,0.1,2.2,0.4,3.2C62.9,43.9,52.7,38.4,45.8,30c-1.2,2.1-1.9,4.5-1.9,7
		c0,4.8,2.5,9.1,6.2,11.6c-2.3-0.1-4.4-0.7-6.3-1.7c0,0.1,0,0.1,0,0.2c0,6.7,4.8,12.4,11.2,13.7c-1.2,0.3-2.4,0.5-3.7,0.5
		c-0.9,0-1.8-0.1-2.6-0.2c1.8,5.5,6.9,9.6,13,9.7c-4.8,3.7-10.8,6-17.3,6c-1.1,0-2.2-0.1-3.3-0.2c6.2,4,13.5,6.3,21.4,6.3
		C88,82.6,102,61.4,102,43c0-0.6,0-1.2,0-1.8C104.7,39.2,107.1,36.7,108.9,33.9L108.9,33.9z M108.9,33.9"/>
</g>
</svg>
