<svg xmlns="http://www.w3.org/2000/svg" viewBox="0 0 150 110"><style><![CDATA[.H{fill:#329CC2}]]></style><path class="H" d="M0 110l3.5-13.1 16.9-63.1C25.5 14.8 44.4 0 63.5 0H150l-20.4 76.2c-5.1 18.9-24 33.8-43.1 33.8H0zM63.5 5.2c-16.8 0-33.5 13.2-38 29.9L6.8 104.8h79.7c16.9 0 33.6-13.1 38.1-29.9l18.7-69.6H63.5zM108.8 34c-2.5 1.1-5.2 1.9-8 2.2 2.9-1.7 5.1-4.4 6.1-7.7-2.7 1.6-5.7 2.7-8.8 3.4A13.73 13.73 0 0 0 88 27.5a13.87 13.87 0 0 0-13.9 13.9c0 1.1.1 2.1.4 3.2C63 44 52.7 38.4 45.9 30c-1.2 2.1-1.9 4.4-1.9 7 0 4.8 2.5 9.1 6.2 11.6-2.3-.1-4.4-.7-6.3-1.7v.2c0 6.7 4.8 12.3 11.1 13.6-1.2.3-2.4.5-3.7.5-.9 0-1.8-.1-2.6-.2 1.8 5.5 6.9 9.5 13 9.6-4.7 3.6-10.7 5.9-17.2 5.9-1.1 0-2.2-.1-3.3-.2 6.1 3.9 13.4 6.2 21.3 6.2C88 82.5 102 61.3 102 43v-1.8c2.6-2 5-4.4 6.8-7.2zm0 0"/></svg>