<?xml version="1.0" encoding="utf-8"?>
<!-- Generator: Adobe Illustrator 19.0.0, SVG Export Plug-In . SVG Version: 6.00 Build 0)  -->
<svg version="1.1" id="Layer_1" xmlns="http://www.w3.org/2000/svg" xmlns:xlink="http://www.w3.org/1999/xlink" x="0px" y="0px"
	 viewBox="0 0 150 110" style="enable-background:new 0 0 150 110;" xml:space="preserve">
<style type="text/css">
	.st0{display:none;}
	.st1{display:inline;fill:#EE712B;}
	.st2{display:inline;fill:#65469B;}
	.st3{display:inline;fill:#008166;}
	.st4{display:inline;fill:#2C4762;}
	.st5{display:inline;fill:#E32E28;}
	.st6{display:inline;fill-rule:evenodd;clip-rule:evenodd;fill:#E32E28;}
	.st7{display:inline;fill:#329CC2;}
	.st8{display:inline;fill:#314A7E;}
	.st9{display:inline;fill:#6A99A7;}
	.st10{fill:#1A459C;}
</style>
<g id="XMLID_1_" class="st0">
	<path id="XMLID_63_" class="st1" d="M0,110l3.5-13.1l16.9-63.1C25.5,14.8,44.4,0,63.5,0H150l-3.5,13.1l-16.9,63.1
		c-5.1,18.9-24,33.8-43.1,33.8H0z M63.5,5.2C46.7,5.2,30,18.4,25.5,35.1L6.8,104.8h79.7c16.9,0,33.6-13.1,38.1-29.9l18.7-69.6H63.5z
		"/>
	<path id="XMLID_176_" class="st1" d="M38.6,66.8c0,0.2-0.1,0.3-0.3,0.3c-0.2,0-0.3-0.1-0.3-0.3l-0.5-4.1l0.5-4.2
		c0-0.2,0.1-0.3,0.3-0.3c0.2,0,0.3,0.1,0.3,0.3l0.7,4.2L38.6,66.8z M41.4,69.2c0,0.2-0.2,0.3-0.3,0.3c-0.2,0-0.3-0.1-0.3-0.3
		l-0.7-6.6l0.7-6.7c0-0.2,0.2-0.3,0.3-0.3c0.2,0,0.3,0.1,0.3,0.3l0.8,6.7L41.4,69.2z M44.4,70.4c0,0.2-0.2,0.4-0.4,0.4
		c-0.2,0-0.4-0.2-0.4-0.4L43,62.7l0.7-8c0-0.2,0.2-0.4,0.4-0.4c0.2,0,0.4,0.2,0.4,0.4l0.8,8L44.4,70.4z M47.5,70.6
		c0,0.2-0.2,0.4-0.4,0.4c-0.2,0-0.4-0.2-0.4-0.4l-0.7-7.9l0.7-8.2c0-0.2,0.2-0.4,0.4-0.4c0.2,0,0.4,0.2,0.4,0.4l0.7,8.2L47.5,70.6z
		 M50.5,70.7c0,0.3-0.2,0.5-0.5,0.5c-0.3,0-0.5-0.2-0.5-0.5l-0.6-8l0.6-7.6c0-0.3,0.2-0.5,0.5-0.5c0.3,0,0.5,0.2,0.5,0.5l0.7,7.6
		L50.5,70.7z M53.6,70.7L53.6,70.7c0,0.3-0.3,0.6-0.6,0.6c-0.3,0-0.6-0.2-0.6-0.6l-0.6-8l0.6-12.4c0-0.3,0.3-0.6,0.6-0.6
		c0.3,0,0.6,0.2,0.6,0.6l0.7,12.4L53.6,70.7z M56.7,70.7L56.7,70.7c0,0.3-0.3,0.6-0.6,0.6c-0.3,0-0.6-0.3-0.6-0.6l-0.5-8l0.5-15.2
		c0-0.3,0.3-0.6,0.6-0.6c0.3,0,0.6,0.3,0.6,0.6l0.6,15.2L56.7,70.7z M59.9,70.5L59.9,70.5c0,0.4-0.3,0.7-0.7,0.7
		c-0.4,0-0.7-0.3-0.7-0.7L58,62.7c0,0,0.5-16.5,0.5-16.5c0-0.4,0.3-0.7,0.7-0.7c0.4,0,0.7,0.3,0.7,0.7l0.6,16.5L59.9,70.5z M63,70.5
		c0,0.4-0.3,0.8-0.8,0.8c-0.4,0-0.7-0.3-0.8-0.8L61,62.7l0.5-17.1c0-0.4,0.3-0.8,0.8-0.8c0.4,0,0.7,0.3,0.8,0.8l0.5,17.1L63,70.5z
		 M66.2,70.4L66.2,70.4c0,0.5-0.4,0.8-0.8,0.8c-0.4,0-0.8-0.4-0.8-0.8l-0.4-7.8L64.5,46c0-0.5,0.4-0.8,0.8-0.8
		c0.5,0,0.8,0.4,0.8,0.8l0.5,16.6L66.2,70.4z M69.4,70.4L69.4,70.4c0,0.5-0.4,0.9-0.9,0.9c-0.5,0-0.9-0.4-0.9-0.9l-0.4-7.7l0.4-16
		c0-0.5,0.4-0.9,0.9-0.9c0.5,0,0.9,0.4,0.9,0.9l0.4,16L69.4,70.4z M72.7,69.6l0,0.8c0,0.3-0.1,0.5-0.3,0.7c-0.2,0.2-0.4,0.3-0.7,0.3
		c-0.3,0-0.6-0.1-0.7-0.3c-0.1-0.2-0.2-0.4-0.2-0.6c0,0,0,0,0,0c0,0-0.4-7.6-0.4-7.7l0.4-18.9l0-0.2c0-0.3,0.2-0.6,0.4-0.8
		c0.1-0.1,0.3-0.2,0.5-0.2c0.2,0,0.4,0.1,0.5,0.2c0.3,0.2,0.4,0.5,0.4,0.8L73,62.7L72.7,69.6z M75.8,70.2L75.8,70.2c0,0.5-0.5,1-1,1
		c-0.6,0-1-0.5-1-1l-0.2-3.7l-0.2-3.8L73.8,42v-0.1c0-0.3,0.1-0.6,0.4-0.8c0.2-0.1,0.4-0.2,0.6-0.2c0.2,0,0.4,0.1,0.5,0.1
		c0.3,0.2,0.5,0.5,0.5,0.9l0.4,20.8L75.8,70.2z M103.3,71.2c0,0-25.5,0-25.6,0c-0.6-0.1-1-0.5-1-1.1V40.9c0-0.5,0.2-0.8,0.9-1.1
		c1.8-0.7,3.8-1.1,5.9-1.1c8.5,0,15.5,6.5,16.2,14.8c1.1-0.5,2.3-0.7,3.6-0.7c5.1,0,9.2,4.1,9.2,9.2
		C112.5,67.2,108.4,71.2,103.3,71.2L103.3,71.2z M103.3,71.2"/>
</g>
<g id="XMLID_158_" class="st0">
	<path id="XMLID_59_" class="st2" d="M0,110l3.5-13.1l16.9-63.1C25.5,14.8,44.4,0,63.5,0H150l-3.5,13.1l-16.9,63.1
		c-5.1,18.9-24,33.8-43.1,33.8H0z M63.5,5.2C46.7,5.2,30,18.4,25.5,35.1L6.8,104.8h79.7c16.9,0,33.6-13.1,38.1-29.9l18.7-69.6H63.5z
		"/>
	<path id="XMLID_159_" class="st2" d="M88.3,75.3H77.5l-7.2,7.2h-7.2v-7.2H50V37.1l3.6-9.6h49V61L88.3,75.3z M97.9,58.6V32.3H58.4
		V67h10.8v7.2l7.2-7.2h13.1L97.9,58.6z M84.7,41.9v14.4h4.8V41.9H84.7z M71.6,56.2h4.8V41.9h-4.8V56.2z"/>
</g>
<g id="XMLID_147_" class="st0">
	<path id="XMLID_56_" class="st3" d="M0,110l3.5-13.1l16.9-63.1C25.5,14.8,44.4,0,63.5,0H150l-3.5,13.1l-16.9,63.1
		c-5.1,18.9-24,33.8-43.1,33.8H0z M63.5,5.2C46.7,5.2,30,18.4,25.5,35.1L6.8,104.8h79.7c16.9,0,33.6-13.1,38.1-29.9l18.7-69.6H63.5z
		"/>
	<path id="group_1_" class="st3" d="M79.7,47.3c-2.9-0.2-6.2,0-10,0.7l8.8,15.9l35-9.6c-0.4-0.9-0.9-1.8-1.7-2.6
		c-3.6-4.2-11.5-7.9-20-9.6v0c-8.4-2-17.5-1.9-26.8-0.5c-0.3,0.1-0.7,0.1-1,0.2l-3.1-5.7c-3,0.4-5.8,1-8.5,1.9l2.9,6.2
		c-4.8,1.9-8.8,4.5-11.6,7.7c-4.7,5.4-6.6,12.1-4.3,18.6c0.5,1.3,1.1,2.6,1.8,3.8l35-9.6l-9.7-18c0.3-0.1,0.7-0.1,1-0.2
		c15.7-2.8,24.3,1.5,29,6.1l-12,2.9L79.7,47.3z M51.3,63.4c-1.1-4.9-0.2-10.4,6.6-14.1l5.4,11.2L51.3,63.4z M51.3,63.4"/>
</g>
<g id="XMLID_105_" class="st0">
	<path id="XMLID_50_" class="st4" d="M0,110l3.5-13.1l16.9-63.1C25.5,14.8,44.4,0,63.5,0H150l-3.5,13.1l-16.9,63.1
		c-5.1,18.9-24,33.8-43.1,33.8H0z M63.5,5.2C46.7,5.2,30,18.4,25.5,35.1L6.8,104.8h79.7c16.9,0,33.6-13.1,38.1-29.9l18.7-69.6H63.5z
		"/>
	<path id="XMLID_106_" class="st4" d="M77.9,39.5v-12h-7.7c-0.2,0.4-0.3,1-0.3,1.5c-0.1,0.3-0.2,0.4-0.2,0.7c-0.8,4.4-3.1,7.5-7,9.2
		c-1.2,0.5-2.2,0.6-3.4,0.5v9.6h5.7c0.1,13.6,0.1,20.6,0.1,20.9v0.8c0.7,5.9,3.8,9.5,9.3,10.8c2.2,0.6,4.6,0.9,7,0.9
		c3.1-0.1,6.1-0.6,9.1-1.6V69.6c-1.8,0.5-3.4,1-4.8,1.4c-2.7,0.8-5,0.3-6.9-1.5c-0.2-0.3-0.4-0.6-0.5-1c-0.3-1.4-0.4-2.9-0.4-4.3
		V49.1h12.3v-9.6H77.9z M77.9,39.5"/>
</g>
<g id="XMLID_79_" class="st0">
	<path id="XMLID_47_" class="st5" d="M0,110l3.5-13.1l16.9-63.1C25.5,14.8,44.4,0,63.5,0H150l-3.5,13.1l-16.9,63.1
		c-5.1,18.9-24,33.8-43.1,33.8H0z M63.5,5.2C46.7,5.2,30,18.4,25.5,35.1L6.8,104.8h79.7c16.9,0,33.6-13.1,38.1-29.9l18.7-69.6H63.5z
		"/>
	<path id="XMLID_80_" class="st6" d="M107.5,42c0-5.4-4.3-9.7-9.7-9.7H52.2c-5.4,0-9.7,4.3-9.7,9.7V68c0,5.4,4.3,9.7,9.7,9.7h45.6
		c5.4,0,9.7-4.4,9.7-9.7V42z M68.2,66.5V40.9l19.4,12.8L68.2,66.5z M68.2,66.5"/>
</g>
<g id="XMLID_51_" class="st0">
	<path id="XMLID_44_" class="st7" d="M0,110l3.5-13.1l16.9-63.1C25.5,14.8,44.4,0,63.5,0H150l-3.5,13.1l-16.9,63.1
		c-5.1,18.9-24,33.8-43.1,33.8H0z M63.5,5.2C46.7,5.2,30,18.4,25.5,35.1L6.8,104.8h79.7c16.9,0,33.6-13.1,38.1-29.9l18.7-69.6H63.5z
		"/>
	<path id="XMLID_52_" class="st7" d="M108.8,34c-2.5,1.1-5.2,1.9-8,2.2c2.9-1.7,5.1-4.4,6.1-7.7c-2.7,1.6-5.7,2.7-8.8,3.4
		c-2.5-2.7-6.1-4.4-10.1-4.4c-7.7,0-13.9,6.2-13.9,13.9c0,1.1,0.1,2.1,0.4,3.2C63,44,52.7,38.4,45.9,30c-1.2,2.1-1.9,4.4-1.9,7
		c0,4.8,2.5,9.1,6.2,11.6c-2.3-0.1-4.4-0.7-6.3-1.7c0,0.1,0,0.1,0,0.2c0,6.7,4.8,12.3,11.1,13.6c-1.2,0.3-2.4,0.5-3.7,0.5
		c-0.9,0-1.8-0.1-2.6-0.2c1.8,5.5,6.9,9.5,13,9.6C57,74.2,51,76.5,44.5,76.5c-1.1,0-2.2-0.1-3.3-0.2c6.1,3.9,13.4,6.2,21.3,6.2
		C88,82.5,102,61.3,102,43c0-0.6,0-1.2,0-1.8C104.6,39.2,107,36.8,108.8,34L108.8,34z M108.8,34"/>
</g>
<g id="XMLID_4_" class="st0">
	<path id="XMLID_41_" class="st8" d="M0,110l3.5-13.1l16.9-63.1C25.5,14.8,44.4,0,63.5,0H150l-3.5,13.1l-16.9,63.1
		c-5.1,18.9-24,33.8-43.1,33.8H0z M63.5,5.2C46.7,5.2,30,18.4,25.5,35.1L6.8,104.8h79.7c16.9,0,33.6-13.1,38.1-29.9l18.7-69.6H63.5z
		"/>
	<path id="XMLID_5_" class="st8" d="M86.8,55h-7.7v27.5H67.7V55h-5.4v-9.7h5.4V39c0-4.5,2.1-11.5,11.5-11.5l8.5,0V37h-6.1
		c-1,0-2.4,0.5-2.4,2.6v5.7h8.7L86.8,55z M86.8,55"/>
</g>
<g id="XMLID_8_" class="st0">
	<path id="XMLID_2_" class="st9" d="M0,110l3.5-13.1l16.9-63.1C25.5,14.8,44.4,0,63.5,0H150l-3.5,13.1l-16.9,63.1
		c-5.1,18.9-24,33.8-43.1,33.8H0z M63.5,5.2C46.7,5.2,30,18.4,25.5,35.1L6.8,104.8h79.7c16.9,0,33.6-13.1,38.1-29.9l18.7-69.6H63.5z
		"/>
	<polyline id="XMLID_14_" class="st9" points="88.6,77 37.5,77 61.4,33 112.5,33 88.6,77 	"/>
</g>
<g id="XMLID_15_">
	<path id="XMLID_13_" class="st10" d="M0,110l3.5-13.1l16.9-63.1C25.5,14.8,44.4,0,63.5,0H150l-3.5,13.1l-16.9,63.1
		c-5.1,18.9-24,33.8-43.1,33.8H0z M63.5,5.2C46.7,5.2,30,18.4,25.5,35.1L6.8,104.8h79.7c16.9,0,33.6-13.1,38.1-29.9l18.7-69.6H63.5z
		"/>
	<path id="XMLID_12_" class="st10" d="M107.6,64.1c-0.1-1.8-0.3-3.6-0.5-5.4c-0.2-1.6-0.6-3.2-1-4.7c-0.6-2.5-1.5-4.9-2.5-7.2
		c-1.5-3.4-3.5-6.4-6-9.2c-3.5-3.9-7.7-6.7-12.6-8.5c-2.7-1-5.5-1.5-8.4-1.6c-3.1-0.1-6.1,0.1-9.1,0.9c-2,0.5-3.9,1.2-5.7,2.1
		c-2.1,1-4,2.2-5.8,3.7c-2.4,1.9-4.4,4.1-6.1,6.6c-2,2.8-3.6,5.8-4.7,9.1c-0.6,1.7-1.2,3.5-1.6,5.3c-0.3,1.7-0.7,3.3-0.9,5
		c-0.2,1.6-0.3,3.2-0.4,4.7c-0.1,1.9-0.1,3.8,0.2,5.7c0.2,1.5,0.5,2.9,1.1,4.3c1.3,3.1,3.4,5.3,6.6,6.6c1.8,0.7,3.7,1.1,5.6,1.1
		c1.2,0.1,2.4,0,3.6-0.1c1.9-0.1,3.8-0.5,5.5-1.3c2.4-1.1,4.2-2.8,5.5-5.1c1.1-2.1,1.6-4.5,1.8-6.8c0.2-2,0.2-4-0.1-5.9
		c-0.2-1.9-0.6-3.7-1.4-5.4c-1-2.2-2.4-4-4.5-5.2c-2-1.2-4.2-1.8-6.5-2c-2.6-0.2-5.2-0.2-7.8,0.5c-1.6,0.4-3.2,1.1-4.5,2.1
		c-0.4,0.3-0.8,0.6-1.2,1c0-0.1,0-0.1,0-0.2c0.3-0.9,0.5-1.8,0.8-2.6c1.1-3.1,2.6-5.9,4.7-8.5c2.2-2.7,4.8-4.9,7.9-6.6
		c2.6-1.4,5.3-2.4,8.2-2.9c1.5-0.3,3-0.5,4.5-0.6c2.2-0.2,4.5-0.1,6.7,0.1c1.6,0.2,3.1,0.5,4.6,0.8c2.5,0.6,4.8,1.5,7,2.8
		c3,1.7,5.5,3.9,7.7,6.7c1.4,1.8,2.6,3.7,3.5,5.8c0.8,1.7,1.4,3.4,1.9,5.3c-0.1-0.1-0.2-0.2-0.3-0.2c-0.7-0.5-1.5-1.1-2.2-1.6
		c-1.9-1.1-4-1.6-6.2-1.8c-1.8-0.2-3.6-0.1-5.4,0.1c-1.5,0.2-2.9,0.5-4.3,1.1c-2.8,1.1-4.8,3-6,5.7c-1,2-1.4,4.2-1.6,6.4
		c-0.2,2.4-0.2,4.8,0.2,7.1c0.3,1.9,0.8,3.6,1.8,5.3c1.2,2.2,3,3.8,5.3,4.8c2,0.9,4,1.2,6.1,1.3c2.1,0.1,4.3,0,6.3-0.5
		c1.3-0.3,2.6-0.7,3.7-1.4c2.7-1.5,4.4-3.8,5.4-6.7c0.7-2.1,1-4.4,1-6.6C107.7,66.2,107.7,65.2,107.6,64.1z M57.4,66.5
		c0-3.3,0-6.6,0-9.9c0-0.2,0.1-0.3,0.3-0.3c2.2,0.1,4,0.8,5.3,2.6c0.7,0.9,1.1,2,1.4,3.1c0.6,2.2,0.6,4.5,0.4,6.8
		c-0.1,1.4-0.4,2.8-1,4.1c-0.9,2-2.4,3.2-4.5,3.7c-0.5,0.1-1,0.1-1.5,0.2c-0.3,0-0.3-0.1-0.3-0.3C57.4,73.1,57.4,69.8,57.4,66.5z
		 M92.6,76.6c-0.1,0-0.1,0-0.2,0c-1.2-0.1-2.4-0.3-3.5-0.9c-1.4-0.8-2.4-2.1-2.9-3.6c-0.8-2.2-1-4.5-0.9-6.9c0-1.2,0.2-2.4,0.5-3.6
		c0.4-1.4,1-2.7,2.1-3.7c1-1,2.2-1.5,3.6-1.7c0.4-0.1,0.9-0.1,1.3-0.1C92.6,63.1,92.6,69.9,92.6,76.6z"/>
</g>
</svg>
