<svg xmlns="http://www.w3.org/2000/svg" viewBox="0 0 150 110"><style><![CDATA[.K{fill:#1A459C}]]></style><path class="K" d="M0 110l3.5-13.1 16.9-63.1C25.5 14.8 44.4 0 63.5 0H150l-20.4 76.2c-5.1 18.9-24 33.8-43.1 33.8H0zM63.5 5.2c-16.8 0-33.5 13.2-38 29.9L6.8 104.8h79.7c16.9 0 33.6-13.1 38.1-29.9l18.7-69.6H63.5zm44.1 58.9l-.5-5.4c-.2-1.6-.6-3.2-1-4.7-.6-2.5-1.5-4.9-2.5-7.2-1.5-3.4-3.5-6.4-6-9.2-3.5-3.9-7.7-6.7-12.6-8.5-2.7-1-5.5-1.5-8.4-1.6-3.1-.1-6.1.1-9.1.9-2 .5-3.9 1.2-5.7 2.1-2.1 1-4 2.2-5.8 3.7-2.4 1.9-4.4 4.1-6.1 6.6-2 2.8-3.6 5.8-4.7 9.1-.6 1.7-1.2 3.5-1.6 5.3-.3 1.7-.7 3.3-.9 5-.2 1.6-.3 3.2-.4 4.7-.1 1.9-.1 3.8.2 5.7.2 1.5.5 2.9 1.1 4.3 1.3 3.1 3.4 5.3 6.6 6.6 1.8.7 3.7 1.1 5.6 1.1 1.2.1 2.4 0 3.6-.1 1.9-.1 3.8-.5 5.5-1.3 2.4-1.1 4.2-2.8 5.5-5.1 1.1-2.1 1.6-4.5 1.8-6.8.2-2 .2-4-.1-5.9-.2-1.9-.6-3.7-1.4-5.4-1-2.2-2.4-4-4.5-5.2-2-1.2-4.2-1.8-6.5-2-2.6-.2-5.2-.2-7.8.5-1.6.4-3.2 1.1-4.5 2.1-.4.3-.8.6-1.2 1v-.2c.3-.9.5-1.8.8-2.6 1.1-3.1 2.6-5.9 4.7-8.5 2.2-2.7 4.8-4.9 7.9-6.6 2.6-1.4 5.3-2.4 8.2-2.9a34.69 34.69 0 0 1 4.5-.6c2.2-.2 4.5-.1 6.7.1 1.6.2 3.1.5 4.6.8 2.5.6 4.8 1.5 7 2.8 3 1.7 5.5 3.9 7.7 6.7 1.4 1.8 2.6 3.7 3.5 5.8.8 1.7 1.4 3.4 1.9 5.3-.1-.1-.2-.2-.3-.2l-2.2-1.6c-1.9-1.1-4-1.6-6.2-1.8-1.8-.2-3.6-.1-5.4.1-1.5.2-2.9.5-4.3 1.1-2.8 1.1-4.8 3-6 5.7-1 2-1.4 4.2-1.6 6.4-.2 2.4-.2 4.8.2 7.1.3 1.9.8 3.6 1.8 5.3 1.2 2.2 3 3.8 5.3 4.8 2 .9 4 1.2 6.1 1.3s4.3 0 6.3-.5c1.3-.3 2.6-.7 3.7-1.4 2.7-1.5 4.4-3.8 5.4-6.7.7-2.1 1-4.4 1-6.6.2-1.3.2-2.3.1-3.4zm-50.2 2.4v-9.9c0-.2.1-.3.3-.3 2.2.1 4 .8 5.3 2.6.7.9 1.1 2 1.4 3.1.6 2.2.6 4.5.4 6.8-.1 1.4-.4 2.8-1 4.1-.9 2-2.4 3.2-4.5 3.7-.5.1-1 .1-1.5.2-.3 0-.3-.1-.3-.3-.1-3.4-.1-6.7-.1-10zm35.2 10.1h-.2c-1.2-.1-2.4-.3-3.5-.9-1.4-.8-2.4-2.1-2.9-3.6-.8-2.2-1-4.5-.9-6.9 0-1.2.2-2.4.5-3.6.4-1.4 1-2.7 2.1-3.7 1-1 2.2-1.5 3.6-1.7.4-.1.9-.1 1.3-.1v20.5z"/></svg>