<?xml version="1.0" encoding="utf-8"?>
<!-- Generator: Adobe Illustrator 19.0.0, SVG Export Plug-In . SVG Version: 6.00 Build 0)  -->
<svg version="1.1" id="Layer_1" xmlns="http://www.w3.org/2000/svg" xmlns:xlink="http://www.w3.org/1999/xlink" x="0px" y="0px"
	 viewBox="0 0 150 110" style="enable-background:new 0 0 150 110;" xml:space="preserve">
<style type="text/css">
	.st0{fill:#1A459C;}
</style>
<g id="XMLID_15_">
	<path id="XMLID_13_" class="st0" d="M0,110l3.5-13.1l16.9-63.1C25.5,14.8,44.4,0,63.5,0H150l-3.5,13.1l-16.9,63.1
		c-5.1,18.9-24,33.8-43.1,33.8H0z M63.5,5.2C46.7,5.2,30,18.4,25.5,35.1L6.8,104.8h79.7c16.9,0,33.6-13.1,38.1-29.9l18.7-69.6H63.5z
		"/>
	<path id="XMLID_12_" class="st0" d="M114.9,66.2c-0.2-2.2-0.3-4.4-0.6-6.6c-0.3-1.9-0.7-3.9-1.2-5.8c-0.7-3-1.8-5.9-3.1-8.8
		c-1.9-4.1-4.3-7.9-7.3-11.2c-4.3-4.7-9.4-8.2-15.4-10.3c-3.3-1.2-6.7-1.8-10.2-2c-3.7-0.2-7.4,0.1-11.1,1.1c-2.4,0.6-4.7,1.5-7,2.5
		c-2.5,1.2-4.9,2.7-7.1,4.5c-2.9,2.3-5.4,5-7.5,8c-2.4,3.4-4.3,7.1-5.8,11.1c-0.8,2.1-1.5,4.2-1.9,6.4c-0.4,2-0.8,4-1.1,6.1
		c-0.3,1.9-0.4,3.9-0.5,5.8c-0.1,2.3-0.1,4.6,0.3,6.9c0.3,1.8,0.7,3.5,1.3,5.2c1.5,3.8,4.2,6.5,8,8c2.2,0.9,4.5,1.3,6.9,1.4
		c1.4,0.1,2.9,0,4.3-0.1c2.3-0.1,4.6-0.6,6.7-1.6c2.9-1.3,5.2-3.4,6.7-6.2c1.4-2.6,2-5.4,2.3-8.4c0.2-2.4,0.2-4.8-0.1-7.2
		c-0.3-2.3-0.7-4.5-1.7-6.6c-1.2-2.7-3-4.8-5.5-6.4c-2.4-1.5-5.1-2.2-7.9-2.4c-3.2-0.3-6.4-0.2-9.5,0.6c-2,0.5-3.9,1.3-5.6,2.5
		c-0.5,0.4-1,0.8-1.5,1.2c0-0.1,0-0.2,0-0.2c0.3-1.1,0.7-2.2,1-3.2c1.3-3.8,3.2-7.3,5.7-10.4c2.7-3.3,5.9-6,9.6-8.1
		c3.1-1.7,6.5-2.9,10-3.6c1.8-0.3,3.7-0.6,5.5-0.8c2.7-0.2,5.5-0.2,8.2,0.2c1.9,0.2,3.8,0.6,5.7,1c3,0.8,5.8,1.9,8.5,3.4
		c3.7,2.1,6.8,4.8,9.4,8.1c1.7,2.2,3.1,4.6,4.3,7.1c0.9,2.1,1.7,4.2,2.3,6.5c-0.1-0.1-0.2-0.2-0.3-0.3c-0.9-0.7-1.8-1.4-2.7-2
		c-2.3-1.4-4.9-1.9-7.6-2.2c-2.2-0.2-4.4-0.2-6.5,0.1c-1.8,0.2-3.6,0.6-5.3,1.3c-3.4,1.4-5.8,3.7-7.4,7c-1.2,2.5-1.7,5.1-1.9,7.8
		c-0.2,2.9-0.2,5.8,0.3,8.7c0.4,2.3,1,4.4,2.2,6.4c1.5,2.7,3.7,4.6,6.5,5.8c2.4,1.1,4.9,1.5,7.5,1.6c2.6,0.1,5.2,0,7.8-0.6
		c1.6-0.4,3.1-0.9,4.6-1.7c3.3-1.8,5.4-4.7,6.6-8.2c0.9-2.6,1.2-5.3,1.3-8.1C115,68.7,115,67.5,114.9,66.2z M53.5,69.1
		c0-4,0-8.1,0-12.1c0-0.3,0.1-0.4,0.4-0.4c2.6,0.1,4.9,1,6.5,3.2c0.8,1.1,1.4,2.4,1.7,3.8c0.7,2.7,0.8,5.5,0.5,8.3
		c-0.2,1.7-0.5,3.4-1.3,5c-1.1,2.4-2.9,3.9-5.5,4.5c-0.6,0.1-1.2,0.1-1.9,0.2c-0.3,0-0.4-0.1-0.4-0.4C53.5,77.1,53.5,73.1,53.5,69.1
		z M96.5,81.4c-0.1,0-0.1,0.1-0.2,0.1c-1.5-0.1-2.9-0.3-4.3-1.1c-1.8-1-2.9-2.6-3.6-4.4c-1-2.7-1.2-5.5-1.1-8.4
		c0.1-1.5,0.3-2.9,0.6-4.4c0.5-1.7,1.2-3.3,2.5-4.5c1.2-1.2,2.7-1.8,4.4-2c0.5-0.1,1-0.1,1.6-0.2C96.5,64.9,96.5,73.2,96.5,81.4z"/>
</g>
</svg>
