<?xml version="1.0" encoding="utf-8"?>
<!-- Generator: Adobe Illustrator 19.0.0, SVG Export Plug-In . SVG Version: 6.00 Build 0)  -->
<svg version="1.1" id="Layer_1" xmlns="http://www.w3.org/2000/svg" xmlns:xlink="http://www.w3.org/1999/xlink" x="0px" y="0px"
	 viewBox="0 0 150 110" style="enable-background:new 0 0 150 110;" xml:space="preserve">
<style type="text/css">
	.st0{fill:#E32E28;}
	.st1{fill-rule:evenodd;clip-rule:evenodd;fill:#E32E28;}
</style>
<g id="XMLID_79_">
	<path id="XMLID_47_" class="st0" d="M0,110l3.5-13.1l16.9-63.1C25.5,14.8,44.4,0,63.5,0H150l-3.5,13.1l-16.9,63.1
		c-5.1,18.9-24,33.8-43.1,33.8H0z M63.5,5.2C46.7,5.2,30,18.4,25.5,35.1L6.8,104.8h79.7c16.9,0,33.6-13.1,38.1-29.9l18.7-69.6H63.5z
		"/>
	<path id="XMLID_80_" class="st1" d="M107.9,41.8c0-5.4-4.4-9.8-9.8-9.8H52c-5.4,0-9.8,4.4-9.8,9.8v26.4c0,5.4,4.4,9.8,9.8,9.8H98
		c5.4,0,9.8-4.4,9.8-9.8V41.8z M68.4,66.1V41.4l18.8,12.4L68.4,66.1z M68.4,66.1"/>
</g>
</svg>
